<svg xmlns="http://www.w3.org/2000/svg" xmlns:xlink="http://www.w3.org/1999/xlink" width="500" zoomAndPan="magnify" viewBox="0 0 375 374.999991" height="500" preserveAspectRatio="xMidYMid meet" version="1.0"><defs><linearGradient x1="37.43883" gradientTransform="matrix(1, 0, 0, 1, 0.00000297634, 0.00000790534)" y1="-37.939171" x2="114.315931" gradientUnits="userSpaceOnUse" y2="38.938931" id="f6813c704c"><stop stop-opacity="1" stop-color="rgb(63.499451%, 42.698669%, 16.099548%)" offset="0"/><stop stop-opacity="1" stop-color="rgb(63.735962%, 43.055725%, 16.430664%)" offset="0.00390625"/><stop stop-opacity="1" stop-color="rgb(63.973999%, 43.412781%, 16.763306%)" offset="0.0078125"/><stop stop-opacity="1" stop-color="rgb(64.381409%, 44.024658%, 17.332458%)" offset="0.0117188"/><stop stop-opacity="1" stop-color="rgb(64.788818%, 44.636536%, 17.901611%)" offset="0.015625"/><stop stop-opacity="1" stop-color="rgb(65.196228%, 45.246887%, 18.470764%)" offset="0.0195312"/><stop stop-opacity="1" stop-color="rgb(65.603638%, 45.858765%, 19.039917%)" offset="0.0234375"/><stop stop-opacity="1" stop-color="rgb(66.011047%, 46.470642%, 19.60907%)" offset="0.0273438"/><stop stop-opacity="1" stop-color="rgb(66.418457%, 47.08252%, 20.178223%)" offset="0.03125"/><stop stop-opacity="1" stop-color="rgb(66.825867%, 47.694397%, 20.747375%)" offset="0.0351562"/><stop stop-opacity="1" stop-color="rgb(67.233276%, 48.306274%, 21.316528%)" offset="0.0390625"/><stop stop-opacity="1" stop-color="rgb(67.640686%, 48.916626%, 21.885681%)" offset="0.0429688"/><stop stop-opacity="1" stop-color="rgb(68.048096%, 49.528503%, 22.454834%)" offset="0.046875"/><stop stop-opacity="1" stop-color="rgb(68.455505%, 50.140381%, 23.023987%)" offset="0.0507812"/><stop stop-opacity="1" stop-color="rgb(68.862915%, 50.752258%, 23.59314%)" offset="0.0546875"/><stop stop-opacity="1" stop-color="rgb(69.270325%, 51.364136%, 24.162292%)" offset="0.0585938"/><stop stop-opacity="1" stop-color="rgb(69.677734%, 51.976013%, 24.731445%)" offset="0.0625"/><stop stop-opacity="1" stop-color="rgb(70.085144%, 52.586365%, 25.300598%)" offset="0.0664062"/><stop stop-opacity="1" stop-color="rgb(70.492554%, 53.198242%, 25.869751%)" offset="0.0703125"/><stop stop-opacity="1" stop-color="rgb(70.899963%, 53.81012%, 26.438904%)" offset="0.0742188"/><stop stop-opacity="1" stop-color="rgb(71.307373%, 54.421997%, 27.008057%)" offset="0.078125"/><stop stop-opacity="1" stop-color="rgb(71.714783%, 55.033875%, 27.575684%)" offset="0.0820313"/><stop stop-opacity="1" stop-color="rgb(72.122192%, 55.645752%, 28.144836%)" offset="0.0859375"/><stop stop-opacity="1" stop-color="rgb(72.529602%, 56.256104%, 28.713989%)" offset="0.0898438"/><stop stop-opacity="1" stop-color="rgb(72.937012%, 56.867981%, 29.283142%)" offset="0.09375"/><stop stop-opacity="1" stop-color="rgb(73.342896%, 57.479858%, 29.852295%)" offset="0.0976563"/><stop stop-opacity="1" stop-color="rgb(73.750305%, 58.091736%, 30.421448%)" offset="0.101563"/><stop stop-opacity="1" stop-color="rgb(74.157715%, 58.703613%, 30.990601%)" offset="0.105469"/><stop stop-opacity="1" stop-color="rgb(74.565125%, 59.315491%, 31.559753%)" offset="0.109375"/><stop stop-opacity="1" stop-color="rgb(74.972534%, 59.925842%, 32.128906%)" offset="0.113281"/><stop stop-opacity="1" stop-color="rgb(75.379944%, 60.53772%, 32.698059%)" offset="0.117188"/><stop stop-opacity="1" stop-color="rgb(75.787354%, 61.149597%, 33.267212%)" offset="0.121094"/><stop stop-opacity="1" stop-color="rgb(76.194763%, 61.761475%, 33.836365%)" offset="0.125"/><stop stop-opacity="1" stop-color="rgb(76.602173%, 62.373352%, 34.405518%)" offset="0.128906"/><stop stop-opacity="1" stop-color="rgb(77.009583%, 62.985229%, 34.97467%)" offset="0.132812"/><stop stop-opacity="1" stop-color="rgb(77.416992%, 63.595581%, 35.543823%)" offset="0.136719"/><stop stop-opacity="1" stop-color="rgb(77.824402%, 64.207458%, 36.112976%)" offset="0.140625"/><stop stop-opacity="1" stop-color="rgb(78.231812%, 64.819336%, 36.682129%)" offset="0.144531"/><stop stop-opacity="1" stop-color="rgb(78.639221%, 65.431213%, 37.251282%)" offset="0.148438"/><stop stop-opacity="1" stop-color="rgb(79.046631%, 66.043091%, 37.820435%)" offset="0.152344"/><stop stop-opacity="1" stop-color="rgb(79.454041%, 66.654968%, 38.389587%)" offset="0.15625"/><stop stop-opacity="1" stop-color="rgb(79.86145%, 67.26532%, 38.95874%)" offset="0.160156"/><stop stop-opacity="1" stop-color="rgb(80.26886%, 67.877197%, 39.527893%)" offset="0.164063"/><stop stop-opacity="1" stop-color="rgb(80.67627%, 68.489075%, 40.097046%)" offset="0.167969"/><stop stop-opacity="1" stop-color="rgb(81.083679%, 69.100952%, 40.666199%)" offset="0.171875"/><stop stop-opacity="1" stop-color="rgb(81.491089%, 69.71283%, 41.235352%)" offset="0.175781"/><stop stop-opacity="1" stop-color="rgb(81.898499%, 70.324707%, 41.804504%)" offset="0.179688"/><stop stop-opacity="1" stop-color="rgb(82.305908%, 70.935059%, 42.373657%)" offset="0.183594"/><stop stop-opacity="1" stop-color="rgb(82.713318%, 71.546936%, 42.94281%)" offset="0.1875"/><stop stop-opacity="1" stop-color="rgb(83.120728%, 72.158813%, 43.511963%)" offset="0.191406"/><stop stop-opacity="1" stop-color="rgb(83.528137%, 72.770691%, 44.081116%)" offset="0.195313"/><stop stop-opacity="1" stop-color="rgb(83.934021%, 73.382568%, 44.650269%)" offset="0.199219"/><stop stop-opacity="1" stop-color="rgb(84.341431%, 73.994446%, 45.219421%)" offset="0.203125"/><stop stop-opacity="1" stop-color="rgb(84.74884%, 74.604797%, 45.788574%)" offset="0.207031"/><stop stop-opacity="1" stop-color="rgb(85.15625%, 75.216675%, 46.357727%)" offset="0.210938"/><stop stop-opacity="1" stop-color="rgb(85.56366%, 75.828552%, 46.92688%)" offset="0.214844"/><stop stop-opacity="1" stop-color="rgb(85.971069%, 76.44043%, 47.496033%)" offset="0.21875"/><stop stop-opacity="1" stop-color="rgb(86.378479%, 77.052307%, 48.065186%)" offset="0.222656"/><stop stop-opacity="1" stop-color="rgb(86.785889%, 77.664185%, 48.634338%)" offset="0.226563"/><stop stop-opacity="1" stop-color="rgb(87.193298%, 78.274536%, 49.201965%)" offset="0.230469"/><stop stop-opacity="1" stop-color="rgb(87.600708%, 78.886414%, 49.771118%)" offset="0.234375"/><stop stop-opacity="1" stop-color="rgb(88.008118%, 79.498291%, 50.340271%)" offset="0.238281"/><stop stop-opacity="1" stop-color="rgb(88.415527%, 80.110168%, 50.909424%)" offset="0.242188"/><stop stop-opacity="1" stop-color="rgb(88.822937%, 80.722046%, 51.478577%)" offset="0.246094"/><stop stop-opacity="1" stop-color="rgb(89.230347%, 81.333923%, 52.047729%)" offset="0.25"/><stop stop-opacity="1" stop-color="rgb(89.637756%, 81.944275%, 52.616882%)" offset="0.253906"/><stop stop-opacity="1" stop-color="rgb(90.045166%, 82.556152%, 53.186035%)" offset="0.257812"/><stop stop-opacity="1" stop-color="rgb(90.452576%, 83.16803%, 53.755188%)" offset="0.261719"/><stop stop-opacity="1" stop-color="rgb(90.859985%, 83.779907%, 54.324341%)" offset="0.265625"/><stop stop-opacity="1" stop-color="rgb(91.267395%, 84.391785%, 54.893494%)" offset="0.269531"/><stop stop-opacity="1" stop-color="rgb(91.674805%, 85.003662%, 55.462646%)" offset="0.273438"/><stop stop-opacity="1" stop-color="rgb(92.082214%, 85.614014%, 56.031799%)" offset="0.277344"/><stop stop-opacity="1" stop-color="rgb(92.489624%, 86.225891%, 56.600952%)" offset="0.28125"/><stop stop-opacity="1" stop-color="rgb(92.897034%, 86.837769%, 57.170105%)" offset="0.285156"/><stop stop-opacity="1" stop-color="rgb(93.304443%, 87.449646%, 57.739258%)" offset="0.289062"/><stop stop-opacity="1" stop-color="rgb(93.711853%, 88.061523%, 58.308411%)" offset="0.292969"/><stop stop-opacity="1" stop-color="rgb(94.119263%, 88.673401%, 58.877563%)" offset="0.296875"/><stop stop-opacity="1" stop-color="rgb(94.525146%, 89.283752%, 59.446716%)" offset="0.300781"/><stop stop-opacity="1" stop-color="rgb(94.932556%, 89.89563%, 60.015869%)" offset="0.304688"/><stop stop-opacity="1" stop-color="rgb(95.339966%, 90.507507%, 60.585022%)" offset="0.308594"/><stop stop-opacity="1" stop-color="rgb(95.747375%, 91.119385%, 61.154175%)" offset="0.3125"/><stop stop-opacity="1" stop-color="rgb(96.154785%, 91.729736%, 61.723328%)" offset="0.316406"/><stop stop-opacity="1" stop-color="rgb(96.562195%, 92.341614%, 62.29248%)" offset="0.320313"/><stop stop-opacity="1" stop-color="rgb(96.969604%, 92.953491%, 62.861633%)" offset="0.324219"/><stop stop-opacity="1" stop-color="rgb(97.377014%, 93.565369%, 63.430786%)" offset="0.328125"/><stop stop-opacity="1" stop-color="rgb(97.616577%, 93.920898%, 63.74054%)" offset="0.332031"/><stop stop-opacity="1" stop-color="rgb(97.85614%, 94.277954%, 64.051819%)" offset="0.335938"/><stop stop-opacity="1" stop-color="rgb(97.550964%, 93.811035%, 63.529968%)" offset="0.339844"/><stop stop-opacity="1" stop-color="rgb(97.247314%, 93.345642%, 63.009644%)" offset="0.34375"/><stop stop-opacity="1" stop-color="rgb(96.943665%, 92.878723%, 62.487793%)" offset="0.347656"/><stop stop-opacity="1" stop-color="rgb(96.640015%, 92.41333%, 61.965942%)" offset="0.351563"/><stop stop-opacity="1" stop-color="rgb(96.336365%, 91.946411%, 61.444092%)" offset="0.355469"/><stop stop-opacity="1" stop-color="rgb(96.032715%, 91.481018%, 60.923767%)" offset="0.359375"/><stop stop-opacity="1" stop-color="rgb(95.729065%, 91.014099%, 60.401917%)" offset="0.363281"/><stop stop-opacity="1" stop-color="rgb(95.425415%, 90.548706%, 59.880066%)" offset="0.367188"/><stop stop-opacity="1" stop-color="rgb(95.121765%, 90.081787%, 59.358215%)" offset="0.371094"/><stop stop-opacity="1" stop-color="rgb(94.818115%, 89.616394%, 58.837891%)" offset="0.375"/><stop stop-opacity="1" stop-color="rgb(94.514465%, 89.149475%, 58.31604%)" offset="0.378906"/><stop stop-opacity="1" stop-color="rgb(94.210815%, 88.684082%, 57.794189%)" offset="0.382813"/><stop stop-opacity="1" stop-color="rgb(93.907166%, 88.217163%, 57.272339%)" offset="0.386719"/><stop stop-opacity="1" stop-color="rgb(93.603516%, 87.75177%, 56.752014%)" offset="0.390625"/><stop stop-opacity="1" stop-color="rgb(93.299866%, 87.284851%, 56.230164%)" offset="0.394531"/><stop stop-opacity="1" stop-color="rgb(92.996216%, 86.819458%, 55.708313%)" offset="0.398438"/><stop stop-opacity="1" stop-color="rgb(92.692566%, 86.352539%, 55.186462%)" offset="0.402344"/><stop stop-opacity="1" stop-color="rgb(92.388916%, 85.887146%, 54.664612%)" offset="0.40625"/><stop stop-opacity="1" stop-color="rgb(92.085266%, 85.420227%, 54.142761%)" offset="0.410156"/><stop stop-opacity="1" stop-color="rgb(91.781616%, 84.954834%, 53.622437%)" offset="0.414063"/><stop stop-opacity="1" stop-color="rgb(91.477966%, 84.487915%, 53.100586%)" offset="0.417969"/><stop stop-opacity="1" stop-color="rgb(91.174316%, 84.022522%, 52.578735%)" offset="0.421875"/><stop stop-opacity="1" stop-color="rgb(90.869141%, 83.555603%, 52.056885%)" offset="0.425781"/><stop stop-opacity="1" stop-color="rgb(90.565491%, 83.09021%, 51.53656%)" offset="0.429688"/><stop stop-opacity="1" stop-color="rgb(90.261841%, 82.623291%, 51.014709%)" offset="0.433594"/><stop stop-opacity="1" stop-color="rgb(89.958191%, 82.157898%, 50.492859%)" offset="0.4375"/><stop stop-opacity="1" stop-color="rgb(89.654541%, 81.690979%, 49.971008%)" offset="0.441406"/><stop stop-opacity="1" stop-color="rgb(89.350891%, 81.225586%, 49.450684%)" offset="0.445313"/><stop stop-opacity="1" stop-color="rgb(89.047241%, 80.758667%, 48.928833%)" offset="0.449219"/><stop stop-opacity="1" stop-color="rgb(88.743591%, 80.293274%, 48.406982%)" offset="0.453125"/><stop stop-opacity="1" stop-color="rgb(88.439941%, 79.826355%, 47.885132%)" offset="0.457031"/><stop stop-opacity="1" stop-color="rgb(88.136292%, 79.360962%, 47.364807%)" offset="0.460938"/><stop stop-opacity="1" stop-color="rgb(87.832642%, 78.894043%, 46.842957%)" offset="0.464844"/><stop stop-opacity="1" stop-color="rgb(87.528992%, 78.42865%, 46.321106%)" offset="0.46875"/><stop stop-opacity="1" stop-color="rgb(87.225342%, 77.961731%, 45.799255%)" offset="0.472656"/><stop stop-opacity="1" stop-color="rgb(86.921692%, 77.496338%, 45.278931%)" offset="0.476563"/><stop stop-opacity="1" stop-color="rgb(86.618042%, 77.029419%, 44.75708%)" offset="0.480469"/><stop stop-opacity="1" stop-color="rgb(86.314392%, 76.564026%, 44.235229%)" offset="0.484375"/><stop stop-opacity="1" stop-color="rgb(86.010742%, 76.097107%, 43.713379%)" offset="0.488281"/><stop stop-opacity="1" stop-color="rgb(85.707092%, 75.631714%, 43.193054%)" offset="0.492188"/><stop stop-opacity="1" stop-color="rgb(85.403442%, 75.164795%, 42.671204%)" offset="0.496094"/><stop stop-opacity="1" stop-color="rgb(85.099792%, 74.699402%, 42.149353%)" offset="0.5"/><stop stop-opacity="1" stop-color="rgb(84.796143%, 74.232483%, 41.627502%)" offset="0.503906"/><stop stop-opacity="1" stop-color="rgb(84.492493%, 73.76709%, 41.107178%)" offset="0.507813"/><stop stop-opacity="1" stop-color="rgb(84.188843%, 73.300171%, 40.585327%)" offset="0.511719"/><stop stop-opacity="1" stop-color="rgb(83.885193%, 72.834778%, 40.063477%)" offset="0.515625"/><stop stop-opacity="1" stop-color="rgb(83.580017%, 72.367859%, 39.541626%)" offset="0.519531"/><stop stop-opacity="1" stop-color="rgb(83.276367%, 71.902466%, 39.019775%)" offset="0.523438"/><stop stop-opacity="1" stop-color="rgb(82.972717%, 71.435547%, 38.497925%)" offset="0.527344"/><stop stop-opacity="1" stop-color="rgb(82.669067%, 70.970154%, 37.9776%)" offset="0.53125"/><stop stop-opacity="1" stop-color="rgb(82.365417%, 70.503235%, 37.45575%)" offset="0.535156"/><stop stop-opacity="1" stop-color="rgb(82.061768%, 70.037842%, 36.933899%)" offset="0.539063"/><stop stop-opacity="1" stop-color="rgb(81.758118%, 69.570923%, 36.412048%)" offset="0.542969"/><stop stop-opacity="1" stop-color="rgb(81.454468%, 69.10553%, 35.891724%)" offset="0.546875"/><stop stop-opacity="1" stop-color="rgb(81.150818%, 68.638611%, 35.369873%)" offset="0.550781"/><stop stop-opacity="1" stop-color="rgb(80.847168%, 68.173218%, 34.848022%)" offset="0.554688"/><stop stop-opacity="1" stop-color="rgb(80.543518%, 67.706299%, 34.326172%)" offset="0.558594"/><stop stop-opacity="1" stop-color="rgb(80.239868%, 67.240906%, 33.805847%)" offset="0.5625"/><stop stop-opacity="1" stop-color="rgb(79.936218%, 66.773987%, 33.283997%)" offset="0.566406"/><stop stop-opacity="1" stop-color="rgb(79.632568%, 66.308594%, 32.762146%)" offset="0.570313"/><stop stop-opacity="1" stop-color="rgb(79.328918%, 65.841675%, 32.240295%)" offset="0.574219"/><stop stop-opacity="1" stop-color="rgb(79.025269%, 65.376282%, 31.719971%)" offset="0.578125"/><stop stop-opacity="1" stop-color="rgb(78.721619%, 64.909363%, 31.19812%)" offset="0.582031"/><stop stop-opacity="1" stop-color="rgb(78.417969%, 64.44397%, 30.67627%)" offset="0.585938"/><stop stop-opacity="1" stop-color="rgb(78.114319%, 63.977051%, 30.154419%)" offset="0.589844"/><stop stop-opacity="1" stop-color="rgb(77.810669%, 63.511658%, 29.634094%)" offset="0.59375"/><stop stop-opacity="1" stop-color="rgb(77.507019%, 63.044739%, 29.112244%)" offset="0.597656"/><stop stop-opacity="1" stop-color="rgb(77.203369%, 62.579346%, 28.590393%)" offset="0.601563"/><stop stop-opacity="1" stop-color="rgb(76.899719%, 62.112427%, 28.068542%)" offset="0.605469"/><stop stop-opacity="1" stop-color="rgb(76.596069%, 61.647034%, 27.548218%)" offset="0.609375"/><stop stop-opacity="1" stop-color="rgb(76.290894%, 61.180115%, 27.026367%)" offset="0.613281"/><stop stop-opacity="1" stop-color="rgb(75.987244%, 60.714722%, 26.504517%)" offset="0.617188"/><stop stop-opacity="1" stop-color="rgb(75.683594%, 60.247803%, 25.982666%)" offset="0.621094"/><stop stop-opacity="1" stop-color="rgb(75.379944%, 59.78241%, 25.460815%)" offset="0.625"/><stop stop-opacity="1" stop-color="rgb(75.076294%, 59.315491%, 24.938965%)" offset="0.628906"/><stop stop-opacity="1" stop-color="rgb(74.772644%, 58.850098%, 24.41864%)" offset="0.632813"/><stop stop-opacity="1" stop-color="rgb(74.468994%, 58.383179%, 23.89679%)" offset="0.636719"/><stop stop-opacity="1" stop-color="rgb(74.165344%, 57.917786%, 23.374939%)" offset="0.640625"/><stop stop-opacity="1" stop-color="rgb(73.861694%, 57.450867%, 22.853088%)" offset="0.644531"/><stop stop-opacity="1" stop-color="rgb(73.558044%, 56.985474%, 22.332764%)" offset="0.648438"/><stop stop-opacity="1" stop-color="rgb(73.254395%, 56.518555%, 21.810913%)" offset="0.652344"/><stop stop-opacity="1" stop-color="rgb(72.950745%, 56.053162%, 21.289062%)" offset="0.65625"/><stop stop-opacity="1" stop-color="rgb(72.647095%, 55.586243%, 20.767212%)" offset="0.660156"/><stop stop-opacity="1" stop-color="rgb(72.343445%, 55.12085%, 20.246887%)" offset="0.664063"/><stop stop-opacity="1" stop-color="rgb(72.329712%, 55.101013%, 20.210266%)" offset="0.671875"/><stop stop-opacity="1" stop-color="rgb(72.395325%, 55.203247%, 20.291138%)" offset="0.679688"/><stop stop-opacity="1" stop-color="rgb(72.55249%, 55.444336%, 20.523071%)" offset="0.6875"/><stop stop-opacity="1" stop-color="rgb(72.70813%, 55.685425%, 20.753479%)" offset="0.695313"/><stop stop-opacity="1" stop-color="rgb(72.86377%, 55.926514%, 20.985413%)" offset="0.703125"/><stop stop-opacity="1" stop-color="rgb(73.019409%, 56.166077%, 21.217346%)" offset="0.710938"/><stop stop-opacity="1" stop-color="rgb(73.175049%, 56.407166%, 21.447754%)" offset="0.71875"/><stop stop-opacity="1" stop-color="rgb(73.330688%, 56.648254%, 21.679688%)" offset="0.726563"/><stop stop-opacity="1" stop-color="rgb(73.486328%, 56.889343%, 21.911621%)" offset="0.734375"/><stop stop-opacity="1" stop-color="rgb(73.643494%, 57.130432%, 22.142029%)" offset="0.742188"/><stop stop-opacity="1" stop-color="rgb(73.799133%, 57.371521%, 22.373962%)" offset="0.75"/><stop stop-opacity="1" stop-color="rgb(73.954773%, 57.61261%, 22.605896%)" offset="0.757813"/><stop stop-opacity="1" stop-color="rgb(74.110413%, 57.852173%, 22.836304%)" offset="0.765625"/><stop stop-opacity="1" stop-color="rgb(74.266052%, 58.093262%, 23.068237%)" offset="0.773438"/><stop stop-opacity="1" stop-color="rgb(74.421692%, 58.334351%, 23.300171%)" offset="0.78125"/><stop stop-opacity="1" stop-color="rgb(74.577332%, 58.575439%, 23.530579%)" offset="0.789062"/><stop stop-opacity="1" stop-color="rgb(74.734497%, 58.816528%, 23.762512%)" offset="0.796875"/><stop stop-opacity="1" stop-color="rgb(74.890137%, 59.057617%, 23.994446%)" offset="0.804688"/><stop stop-opacity="1" stop-color="rgb(75.045776%, 59.298706%, 24.224854%)" offset="0.8125"/><stop stop-opacity="1" stop-color="rgb(75.201416%, 59.538269%, 24.456787%)" offset="0.820312"/><stop stop-opacity="1" stop-color="rgb(75.357056%, 59.779358%, 24.688721%)" offset="0.828125"/><stop stop-opacity="1" stop-color="rgb(75.512695%, 60.020447%, 24.919128%)" offset="0.835938"/><stop stop-opacity="1" stop-color="rgb(75.668335%, 60.261536%, 25.151062%)" offset="0.84375"/><stop stop-opacity="1" stop-color="rgb(75.8255%, 60.502625%, 25.382996%)" offset="0.851562"/><stop stop-opacity="1" stop-color="rgb(75.98114%, 60.743713%, 25.613403%)" offset="0.859375"/><stop stop-opacity="1" stop-color="rgb(76.13678%, 60.984802%, 25.845337%)" offset="0.867188"/><stop stop-opacity="1" stop-color="rgb(76.292419%, 61.224365%, 26.077271%)" offset="0.875"/><stop stop-opacity="1" stop-color="rgb(76.448059%, 61.465454%, 26.307678%)" offset="0.882812"/><stop stop-opacity="1" stop-color="rgb(76.603699%, 61.706543%, 26.539612%)" offset="0.890625"/><stop stop-opacity="1" stop-color="rgb(76.759338%, 61.947632%, 26.771545%)" offset="0.898438"/><stop stop-opacity="1" stop-color="rgb(76.916504%, 62.188721%, 27.001953%)" offset="0.90625"/><stop stop-opacity="1" stop-color="rgb(77.072144%, 62.42981%, 27.233887%)" offset="0.914062"/><stop stop-opacity="1" stop-color="rgb(77.227783%, 62.670898%, 27.46582%)" offset="0.921875"/><stop stop-opacity="1" stop-color="rgb(77.383423%, 62.910461%, 27.696228%)" offset="0.929688"/><stop stop-opacity="1" stop-color="rgb(77.539062%, 63.15155%, 27.928162%)" offset="0.9375"/><stop stop-opacity="1" stop-color="rgb(77.694702%, 63.392639%, 28.160095%)" offset="0.945312"/><stop stop-opacity="1" stop-color="rgb(77.850342%, 63.633728%, 28.390503%)" offset="0.953125"/><stop stop-opacity="1" stop-color="rgb(78.007507%, 63.874817%, 28.622437%)" offset="0.960938"/><stop stop-opacity="1" stop-color="rgb(78.163147%, 64.115906%, 28.85437%)" offset="0.96875"/><stop stop-opacity="1" stop-color="rgb(78.318787%, 64.356995%, 29.084778%)" offset="0.976562"/><stop stop-opacity="1" stop-color="rgb(78.474426%, 64.596558%, 29.316711%)" offset="0.984375"/><stop stop-opacity="1" stop-color="rgb(78.675842%, 64.907837%, 29.615784%)" offset="0.993485"/><stop stop-opacity="1" stop-color="rgb(78.799438%, 65.098572%, 29.798889%)" offset="1"/></linearGradient><linearGradient x1="37.88601" gradientTransform="matrix(1, 0, 0, 1, -0.00000187359, 0.00000790534)" y1="-38.387989" x2="115.66307" gradientUnits="userSpaceOnUse" y2="39.388065" id="c59eb859fe"><stop stop-opacity="1" stop-color="rgb(63.499451%, 42.698669%, 16.099548%)" offset="0"/><stop stop-opacity="1" stop-color="rgb(63.737488%, 43.057251%, 16.433716%)" offset="0.00390625"/><stop stop-opacity="1" stop-color="rgb(63.977051%, 43.417358%, 16.767883%)" offset="0.0078125"/><stop stop-opacity="1" stop-color="rgb(64.38446%, 44.02771%, 17.337036%)" offset="0.0117188"/><stop stop-opacity="1" stop-color="rgb(64.79187%, 44.639587%, 17.906189%)" offset="0.015625"/><stop stop-opacity="1" stop-color="rgb(65.19928%, 45.251465%, 18.473816%)" offset="0.0195312"/><stop stop-opacity="1" stop-color="rgb(65.606689%, 45.863342%, 19.042969%)" offset="0.0234375"/><stop stop-opacity="1" stop-color="rgb(66.014099%, 46.47522%, 19.612122%)" offset="0.0273438"/><stop stop-opacity="1" stop-color="rgb(66.421509%, 47.087097%, 20.181274%)" offset="0.03125"/><stop stop-opacity="1" stop-color="rgb(66.828918%, 47.697449%, 20.750427%)" offset="0.0351562"/><stop stop-opacity="1" stop-color="rgb(67.236328%, 48.309326%, 21.31958%)" offset="0.0390625"/><stop stop-opacity="1" stop-color="rgb(67.643738%, 48.921204%, 21.888733%)" offset="0.0429687"/><stop stop-opacity="1" stop-color="rgb(68.051147%, 49.533081%, 22.457886%)" offset="0.046875"/><stop stop-opacity="1" stop-color="rgb(68.458557%, 50.144958%, 23.027039%)" offset="0.0507812"/><stop stop-opacity="1" stop-color="rgb(68.865967%, 50.756836%, 23.596191%)" offset="0.0546875"/><stop stop-opacity="1" stop-color="rgb(69.273376%, 51.367188%, 24.165344%)" offset="0.0585937"/><stop stop-opacity="1" stop-color="rgb(69.680786%, 51.979065%, 24.734497%)" offset="0.0625"/><stop stop-opacity="1" stop-color="rgb(70.08667%, 52.590942%, 25.30365%)" offset="0.0664062"/><stop stop-opacity="1" stop-color="rgb(70.49408%, 53.20282%, 25.872803%)" offset="0.0703125"/><stop stop-opacity="1" stop-color="rgb(70.901489%, 53.813171%, 26.441956%)" offset="0.0742187"/><stop stop-opacity="1" stop-color="rgb(71.308899%, 54.425049%, 27.011108%)" offset="0.078125"/><stop stop-opacity="1" stop-color="rgb(71.716309%, 55.036926%, 27.580261%)" offset="0.0820312"/><stop stop-opacity="1" stop-color="rgb(72.123718%, 55.648804%, 28.149414%)" offset="0.0859375"/><stop stop-opacity="1" stop-color="rgb(72.531128%, 56.260681%, 28.718567%)" offset="0.0898437"/><stop stop-opacity="1" stop-color="rgb(72.938538%, 56.872559%, 29.28772%)" offset="0.09375"/><stop stop-opacity="1" stop-color="rgb(73.345947%, 57.48291%, 29.855347%)" offset="0.0976562"/><stop stop-opacity="1" stop-color="rgb(73.753357%, 58.094788%, 30.4245%)" offset="0.101562"/><stop stop-opacity="1" stop-color="rgb(74.160767%, 58.706665%, 30.993652%)" offset="0.105469"/><stop stop-opacity="1" stop-color="rgb(74.568176%, 59.318542%, 31.562805%)" offset="0.109375"/><stop stop-opacity="1" stop-color="rgb(74.975586%, 59.93042%, 32.131958%)" offset="0.113281"/><stop stop-opacity="1" stop-color="rgb(75.382996%, 60.542297%, 32.701111%)" offset="0.117187"/><stop stop-opacity="1" stop-color="rgb(75.790405%, 61.152649%, 33.270264%)" offset="0.121094"/><stop stop-opacity="1" stop-color="rgb(76.197815%, 61.764526%, 33.839417%)" offset="0.125"/><stop stop-opacity="1" stop-color="rgb(76.605225%, 62.376404%, 34.408569%)" offset="0.128906"/><stop stop-opacity="1" stop-color="rgb(77.012634%, 62.988281%, 34.977722%)" offset="0.132812"/><stop stop-opacity="1" stop-color="rgb(77.418518%, 63.598633%, 35.546875%)" offset="0.136719"/><stop stop-opacity="1" stop-color="rgb(77.825928%, 64.21051%, 36.116028%)" offset="0.140625"/><stop stop-opacity="1" stop-color="rgb(78.233337%, 64.822388%, 36.685181%)" offset="0.144531"/><stop stop-opacity="1" stop-color="rgb(78.640747%, 65.434265%, 37.254333%)" offset="0.148438"/><stop stop-opacity="1" stop-color="rgb(79.048157%, 66.046143%, 37.823486%)" offset="0.152344"/><stop stop-opacity="1" stop-color="rgb(79.455566%, 66.65802%, 38.392639%)" offset="0.15625"/><stop stop-opacity="1" stop-color="rgb(79.862976%, 67.268372%, 38.961792%)" offset="0.160156"/><stop stop-opacity="1" stop-color="rgb(80.270386%, 67.880249%, 39.530945%)" offset="0.164062"/><stop stop-opacity="1" stop-color="rgb(80.677795%, 68.492126%, 40.100098%)" offset="0.167969"/><stop stop-opacity="1" stop-color="rgb(81.085205%, 69.104004%, 40.66925%)" offset="0.171875"/><stop stop-opacity="1" stop-color="rgb(81.492615%, 69.714355%, 41.238403%)" offset="0.175781"/><stop stop-opacity="1" stop-color="rgb(81.900024%, 70.326233%, 41.807556%)" offset="0.179688"/><stop stop-opacity="1" stop-color="rgb(82.307434%, 70.93811%, 42.375183%)" offset="0.183594"/><stop stop-opacity="1" stop-color="rgb(82.714844%, 71.549988%, 42.944336%)" offset="0.1875"/><stop stop-opacity="1" stop-color="rgb(83.122253%, 72.161865%, 43.513489%)" offset="0.191406"/><stop stop-opacity="1" stop-color="rgb(83.529663%, 72.773743%, 44.082642%)" offset="0.195312"/><stop stop-opacity="1" stop-color="rgb(83.937073%, 73.384094%, 44.651794%)" offset="0.199219"/><stop stop-opacity="1" stop-color="rgb(84.344482%, 73.995972%, 45.220947%)" offset="0.203125"/><stop stop-opacity="1" stop-color="rgb(84.751892%, 74.607849%, 45.7901%)" offset="0.207031"/><stop stop-opacity="1" stop-color="rgb(85.159302%, 75.219727%, 46.359253%)" offset="0.210938"/><stop stop-opacity="1" stop-color="rgb(85.565186%, 75.831604%, 46.928406%)" offset="0.214844"/><stop stop-opacity="1" stop-color="rgb(85.972595%, 76.443481%, 47.497559%)" offset="0.21875"/><stop stop-opacity="1" stop-color="rgb(86.380005%, 77.053833%, 48.066711%)" offset="0.222656"/><stop stop-opacity="1" stop-color="rgb(86.787415%, 77.66571%, 48.635864%)" offset="0.226562"/><stop stop-opacity="1" stop-color="rgb(87.194824%, 78.277588%, 49.205017%)" offset="0.230469"/><stop stop-opacity="1" stop-color="rgb(87.602234%, 78.889465%, 49.77417%)" offset="0.234375"/><stop stop-opacity="1" stop-color="rgb(88.009644%, 79.499817%, 50.343323%)" offset="0.238281"/><stop stop-opacity="1" stop-color="rgb(88.417053%, 80.111694%, 50.912476%)" offset="0.242188"/><stop stop-opacity="1" stop-color="rgb(88.824463%, 80.723572%, 51.481628%)" offset="0.246094"/><stop stop-opacity="1" stop-color="rgb(89.231873%, 81.335449%, 52.050781%)" offset="0.25"/><stop stop-opacity="1" stop-color="rgb(89.639282%, 81.947327%, 52.619934%)" offset="0.253906"/><stop stop-opacity="1" stop-color="rgb(90.046692%, 82.559204%, 53.189087%)" offset="0.257812"/><stop stop-opacity="1" stop-color="rgb(90.454102%, 83.169556%, 53.75824%)" offset="0.261719"/><stop stop-opacity="1" stop-color="rgb(90.861511%, 83.781433%, 54.327393%)" offset="0.265625"/><stop stop-opacity="1" stop-color="rgb(91.268921%, 84.393311%, 54.89502%)" offset="0.269531"/><stop stop-opacity="1" stop-color="rgb(91.676331%, 85.005188%, 55.464172%)" offset="0.273437"/><stop stop-opacity="1" stop-color="rgb(92.08374%, 85.617065%, 56.033325%)" offset="0.277344"/><stop stop-opacity="1" stop-color="rgb(92.49115%, 86.228943%, 56.602478%)" offset="0.28125"/><stop stop-opacity="1" stop-color="rgb(92.89856%, 86.839294%, 57.171631%)" offset="0.285156"/><stop stop-opacity="1" stop-color="rgb(93.305969%, 87.451172%, 57.740784%)" offset="0.289062"/><stop stop-opacity="1" stop-color="rgb(93.711853%, 88.063049%, 58.309937%)" offset="0.292969"/><stop stop-opacity="1" stop-color="rgb(94.119263%, 88.674927%, 58.879089%)" offset="0.296875"/><stop stop-opacity="1" stop-color="rgb(94.526672%, 89.285278%, 59.448242%)" offset="0.300781"/><stop stop-opacity="1" stop-color="rgb(94.934082%, 89.897156%, 60.017395%)" offset="0.304687"/><stop stop-opacity="1" stop-color="rgb(95.341492%, 90.509033%, 60.586548%)" offset="0.308594"/><stop stop-opacity="1" stop-color="rgb(95.748901%, 91.120911%, 61.155701%)" offset="0.3125"/><stop stop-opacity="1" stop-color="rgb(96.156311%, 91.732788%, 61.724854%)" offset="0.316406"/><stop stop-opacity="1" stop-color="rgb(96.563721%, 92.344666%, 62.294006%)" offset="0.320312"/><stop stop-opacity="1" stop-color="rgb(96.97113%, 92.955017%, 62.863159%)" offset="0.324219"/><stop stop-opacity="1" stop-color="rgb(97.37854%, 93.566895%, 63.432312%)" offset="0.328125"/><stop stop-opacity="1" stop-color="rgb(97.616577%, 93.922424%, 63.74054%)" offset="0.332031"/><stop stop-opacity="1" stop-color="rgb(97.854614%, 94.277954%, 64.050293%)" offset="0.335937"/><stop stop-opacity="1" stop-color="rgb(97.550964%, 93.811035%, 63.528442%)" offset="0.339844"/><stop stop-opacity="1" stop-color="rgb(97.247314%, 93.345642%, 63.008118%)" offset="0.34375"/><stop stop-opacity="1" stop-color="rgb(96.943665%, 92.878723%, 62.486267%)" offset="0.347656"/><stop stop-opacity="1" stop-color="rgb(96.640015%, 92.41333%, 61.964417%)" offset="0.351562"/><stop stop-opacity="1" stop-color="rgb(96.336365%, 91.946411%, 61.442566%)" offset="0.355469"/><stop stop-opacity="1" stop-color="rgb(96.032715%, 91.481018%, 60.922241%)" offset="0.359375"/><stop stop-opacity="1" stop-color="rgb(95.729065%, 91.014099%, 60.400391%)" offset="0.363281"/><stop stop-opacity="1" stop-color="rgb(95.425415%, 90.548706%, 59.87854%)" offset="0.367187"/><stop stop-opacity="1" stop-color="rgb(95.121765%, 90.081787%, 59.356689%)" offset="0.371094"/><stop stop-opacity="1" stop-color="rgb(94.818115%, 89.616394%, 58.836365%)" offset="0.375"/><stop stop-opacity="1" stop-color="rgb(94.514465%, 89.149475%, 58.314514%)" offset="0.378906"/><stop stop-opacity="1" stop-color="rgb(94.210815%, 88.684082%, 57.792664%)" offset="0.382812"/><stop stop-opacity="1" stop-color="rgb(93.907166%, 88.217163%, 57.270813%)" offset="0.386719"/><stop stop-opacity="1" stop-color="rgb(93.603516%, 87.75177%, 56.750488%)" offset="0.390625"/><stop stop-opacity="1" stop-color="rgb(93.29834%, 87.284851%, 56.228638%)" offset="0.394531"/><stop stop-opacity="1" stop-color="rgb(92.99469%, 86.819458%, 55.706787%)" offset="0.398437"/><stop stop-opacity="1" stop-color="rgb(92.69104%, 86.352539%, 55.184937%)" offset="0.402344"/><stop stop-opacity="1" stop-color="rgb(92.38739%, 85.887146%, 54.664612%)" offset="0.40625"/><stop stop-opacity="1" stop-color="rgb(92.08374%, 85.420227%, 54.142761%)" offset="0.410156"/><stop stop-opacity="1" stop-color="rgb(91.78009%, 84.954834%, 53.620911%)" offset="0.414062"/><stop stop-opacity="1" stop-color="rgb(91.47644%, 84.487915%, 53.09906%)" offset="0.417969"/><stop stop-opacity="1" stop-color="rgb(91.172791%, 84.022522%, 52.578735%)" offset="0.421875"/><stop stop-opacity="1" stop-color="rgb(90.869141%, 83.555603%, 52.056885%)" offset="0.425781"/><stop stop-opacity="1" stop-color="rgb(90.565491%, 83.09021%, 51.535034%)" offset="0.429687"/><stop stop-opacity="1" stop-color="rgb(90.261841%, 82.623291%, 51.013184%)" offset="0.433594"/><stop stop-opacity="1" stop-color="rgb(89.958191%, 82.157898%, 50.492859%)" offset="0.4375"/><stop stop-opacity="1" stop-color="rgb(89.654541%, 81.690979%, 49.971008%)" offset="0.441406"/><stop stop-opacity="1" stop-color="rgb(89.350891%, 81.225586%, 49.449158%)" offset="0.445312"/><stop stop-opacity="1" stop-color="rgb(89.047241%, 80.758667%, 48.927307%)" offset="0.449219"/><stop stop-opacity="1" stop-color="rgb(88.743591%, 80.293274%, 48.406982%)" offset="0.453125"/><stop stop-opacity="1" stop-color="rgb(88.439941%, 79.826355%, 47.885132%)" offset="0.457031"/><stop stop-opacity="1" stop-color="rgb(88.136292%, 79.360962%, 47.363281%)" offset="0.460937"/><stop stop-opacity="1" stop-color="rgb(87.832642%, 78.894043%, 46.841431%)" offset="0.464844"/><stop stop-opacity="1" stop-color="rgb(87.528992%, 78.42865%, 46.321106%)" offset="0.46875"/><stop stop-opacity="1" stop-color="rgb(87.225342%, 77.961731%, 45.799255%)" offset="0.472656"/><stop stop-opacity="1" stop-color="rgb(86.921692%, 77.496338%, 45.277405%)" offset="0.476562"/><stop stop-opacity="1" stop-color="rgb(86.618042%, 77.029419%, 44.755554%)" offset="0.480469"/><stop stop-opacity="1" stop-color="rgb(86.314392%, 76.564026%, 44.235229%)" offset="0.484375"/><stop stop-opacity="1" stop-color="rgb(86.010742%, 76.097107%, 43.713379%)" offset="0.488281"/><stop stop-opacity="1" stop-color="rgb(85.707092%, 75.631714%, 43.191528%)" offset="0.492187"/><stop stop-opacity="1" stop-color="rgb(85.403442%, 75.164795%, 42.669678%)" offset="0.496094"/><stop stop-opacity="1" stop-color="rgb(85.099792%, 74.699402%, 42.149353%)" offset="0.5"/><stop stop-opacity="1" stop-color="rgb(84.796143%, 74.232483%, 41.627502%)" offset="0.503906"/><stop stop-opacity="1" stop-color="rgb(84.492493%, 73.76709%, 41.105652%)" offset="0.507812"/><stop stop-opacity="1" stop-color="rgb(84.187317%, 73.300171%, 40.583801%)" offset="0.511719"/><stop stop-opacity="1" stop-color="rgb(83.883667%, 72.834778%, 40.063477%)" offset="0.515625"/><stop stop-opacity="1" stop-color="rgb(83.580017%, 72.367859%, 39.541626%)" offset="0.519531"/><stop stop-opacity="1" stop-color="rgb(83.276367%, 71.902466%, 39.019775%)" offset="0.523438"/><stop stop-opacity="1" stop-color="rgb(82.972717%, 71.435547%, 38.497925%)" offset="0.527344"/><stop stop-opacity="1" stop-color="rgb(82.669067%, 70.970154%, 37.9776%)" offset="0.53125"/><stop stop-opacity="1" stop-color="rgb(82.365417%, 70.503235%, 37.45575%)" offset="0.535156"/><stop stop-opacity="1" stop-color="rgb(82.061768%, 70.037842%, 36.933899%)" offset="0.539062"/><stop stop-opacity="1" stop-color="rgb(81.758118%, 69.570923%, 36.412048%)" offset="0.542969"/><stop stop-opacity="1" stop-color="rgb(81.454468%, 69.10553%, 35.891724%)" offset="0.546875"/><stop stop-opacity="1" stop-color="rgb(81.150818%, 68.638611%, 35.369873%)" offset="0.550781"/><stop stop-opacity="1" stop-color="rgb(80.847168%, 68.173218%, 34.848022%)" offset="0.554687"/><stop stop-opacity="1" stop-color="rgb(80.543518%, 67.706299%, 34.326172%)" offset="0.558594"/><stop stop-opacity="1" stop-color="rgb(80.239868%, 67.240906%, 33.805847%)" offset="0.5625"/><stop stop-opacity="1" stop-color="rgb(79.936218%, 66.773987%, 33.283997%)" offset="0.566406"/><stop stop-opacity="1" stop-color="rgb(79.632568%, 66.308594%, 32.762146%)" offset="0.570313"/><stop stop-opacity="1" stop-color="rgb(79.328918%, 65.841675%, 32.240295%)" offset="0.574219"/><stop stop-opacity="1" stop-color="rgb(79.025269%, 65.376282%, 31.719971%)" offset="0.578125"/><stop stop-opacity="1" stop-color="rgb(78.721619%, 64.909363%, 31.19812%)" offset="0.582031"/><stop stop-opacity="1" stop-color="rgb(78.417969%, 64.44397%, 30.67627%)" offset="0.585938"/><stop stop-opacity="1" stop-color="rgb(78.114319%, 63.977051%, 30.154419%)" offset="0.589844"/><stop stop-opacity="1" stop-color="rgb(77.810669%, 63.511658%, 29.634094%)" offset="0.59375"/><stop stop-opacity="1" stop-color="rgb(77.507019%, 63.044739%, 29.112244%)" offset="0.597656"/><stop stop-opacity="1" stop-color="rgb(77.203369%, 62.579346%, 28.590393%)" offset="0.601562"/><stop stop-opacity="1" stop-color="rgb(76.899719%, 62.112427%, 28.068542%)" offset="0.605469"/><stop stop-opacity="1" stop-color="rgb(76.596069%, 61.647034%, 27.548218%)" offset="0.609375"/><stop stop-opacity="1" stop-color="rgb(76.292419%, 61.180115%, 27.026367%)" offset="0.613281"/><stop stop-opacity="1" stop-color="rgb(75.98877%, 60.714722%, 26.504517%)" offset="0.617188"/><stop stop-opacity="1" stop-color="rgb(75.68512%, 60.247803%, 25.982666%)" offset="0.621094"/><stop stop-opacity="1" stop-color="rgb(75.38147%, 59.78241%, 25.462341%)" offset="0.625"/><stop stop-opacity="1" stop-color="rgb(75.076294%, 59.315491%, 24.940491%)" offset="0.628906"/><stop stop-opacity="1" stop-color="rgb(74.772644%, 58.850098%, 24.41864%)" offset="0.632812"/><stop stop-opacity="1" stop-color="rgb(74.468994%, 58.383179%, 23.89679%)" offset="0.636719"/><stop stop-opacity="1" stop-color="rgb(74.165344%, 57.917786%, 23.376465%)" offset="0.640625"/><stop stop-opacity="1" stop-color="rgb(73.861694%, 57.450867%, 22.854614%)" offset="0.644531"/><stop stop-opacity="1" stop-color="rgb(73.558044%, 56.985474%, 22.332764%)" offset="0.648438"/><stop stop-opacity="1" stop-color="rgb(73.254395%, 56.518555%, 21.810913%)" offset="0.652344"/><stop stop-opacity="1" stop-color="rgb(72.950745%, 56.053162%, 21.290588%)" offset="0.65625"/><stop stop-opacity="1" stop-color="rgb(72.647095%, 55.586243%, 20.768738%)" offset="0.660156"/><stop stop-opacity="1" stop-color="rgb(72.343445%, 55.12085%, 20.246887%)" offset="0.664062"/><stop stop-opacity="1" stop-color="rgb(72.329712%, 55.101013%, 20.210266%)" offset="0.671875"/><stop stop-opacity="1" stop-color="rgb(72.395325%, 55.203247%, 20.291138%)" offset="0.679687"/><stop stop-opacity="1" stop-color="rgb(72.550964%, 55.444336%, 20.523071%)" offset="0.6875"/><stop stop-opacity="1" stop-color="rgb(72.70813%, 55.685425%, 20.753479%)" offset="0.695313"/><stop stop-opacity="1" stop-color="rgb(72.86377%, 55.924988%, 20.985413%)" offset="0.703125"/><stop stop-opacity="1" stop-color="rgb(73.019409%, 56.166077%, 21.217346%)" offset="0.710938"/><stop stop-opacity="1" stop-color="rgb(73.175049%, 56.407166%, 21.447754%)" offset="0.71875"/><stop stop-opacity="1" stop-color="rgb(73.330688%, 56.648254%, 21.679688%)" offset="0.726562"/><stop stop-opacity="1" stop-color="rgb(73.486328%, 56.889343%, 21.911621%)" offset="0.734375"/><stop stop-opacity="1" stop-color="rgb(73.641968%, 57.130432%, 22.142029%)" offset="0.742188"/><stop stop-opacity="1" stop-color="rgb(73.799133%, 57.371521%, 22.373962%)" offset="0.75"/><stop stop-opacity="1" stop-color="rgb(73.954773%, 57.611084%, 22.605896%)" offset="0.757812"/><stop stop-opacity="1" stop-color="rgb(74.110413%, 57.852173%, 22.836304%)" offset="0.765625"/><stop stop-opacity="1" stop-color="rgb(74.266052%, 58.093262%, 23.068237%)" offset="0.773438"/><stop stop-opacity="1" stop-color="rgb(74.421692%, 58.334351%, 23.298645%)" offset="0.78125"/><stop stop-opacity="1" stop-color="rgb(74.577332%, 58.575439%, 23.530579%)" offset="0.789062"/><stop stop-opacity="1" stop-color="rgb(74.732971%, 58.816528%, 23.762512%)" offset="0.796875"/><stop stop-opacity="1" stop-color="rgb(74.890137%, 59.056091%, 23.99292%)" offset="0.804687"/><stop stop-opacity="1" stop-color="rgb(75.045776%, 59.29718%, 24.224854%)" offset="0.8125"/><stop stop-opacity="1" stop-color="rgb(75.201416%, 59.538269%, 24.456787%)" offset="0.820313"/><stop stop-opacity="1" stop-color="rgb(75.357056%, 59.779358%, 24.687195%)" offset="0.828125"/><stop stop-opacity="1" stop-color="rgb(75.512695%, 60.020447%, 24.919128%)" offset="0.835938"/><stop stop-opacity="1" stop-color="rgb(75.668335%, 60.261536%, 25.151062%)" offset="0.84375"/><stop stop-opacity="1" stop-color="rgb(75.823975%, 60.502625%, 25.38147%)" offset="0.851562"/><stop stop-opacity="1" stop-color="rgb(75.979614%, 60.742188%, 25.613403%)" offset="0.859375"/><stop stop-opacity="1" stop-color="rgb(76.13678%, 60.983276%, 25.845337%)" offset="0.867188"/><stop stop-opacity="1" stop-color="rgb(76.292419%, 61.224365%, 26.075745%)" offset="0.875"/><stop stop-opacity="1" stop-color="rgb(76.448059%, 61.465454%, 26.307678%)" offset="0.882812"/><stop stop-opacity="1" stop-color="rgb(76.603699%, 61.706543%, 26.539612%)" offset="0.890625"/><stop stop-opacity="1" stop-color="rgb(76.759338%, 61.947632%, 26.77002%)" offset="0.898438"/><stop stop-opacity="1" stop-color="rgb(76.914978%, 62.187195%, 27.001953%)" offset="0.90625"/><stop stop-opacity="1" stop-color="rgb(77.070618%, 62.428284%, 27.233887%)" offset="0.914062"/><stop stop-opacity="1" stop-color="rgb(77.227783%, 62.669373%, 27.464294%)" offset="0.921875"/><stop stop-opacity="1" stop-color="rgb(77.383423%, 62.910461%, 27.696228%)" offset="0.929687"/><stop stop-opacity="1" stop-color="rgb(77.539062%, 63.15155%, 27.928162%)" offset="0.9375"/><stop stop-opacity="1" stop-color="rgb(77.694702%, 63.392639%, 28.158569%)" offset="0.945313"/><stop stop-opacity="1" stop-color="rgb(77.850342%, 63.633728%, 28.390503%)" offset="0.953125"/><stop stop-opacity="1" stop-color="rgb(78.005981%, 63.873291%, 28.622437%)" offset="0.960938"/><stop stop-opacity="1" stop-color="rgb(78.161621%, 64.11438%, 28.852844%)" offset="0.96875"/><stop stop-opacity="1" stop-color="rgb(78.318787%, 64.355469%, 29.084778%)" offset="0.976562"/><stop stop-opacity="1" stop-color="rgb(78.474426%, 64.596558%, 29.316711%)" offset="0.984375"/><stop stop-opacity="1" stop-color="rgb(78.675842%, 64.907837%, 29.615784%)" offset="0.993552"/><stop stop-opacity="1" stop-color="rgb(78.799438%, 65.098572%, 29.798889%)" offset="1"/></linearGradient><clipPath id="cab38ba7d2"><path d="M 153.738281 170.875 L 221.882812 170.875 L 221.882812 203.875 L 153.738281 203.875 Z M 153.738281 170.875 " clip-rule="nonzero"/></clipPath><clipPath id="520b252ae5"><path d="M 154.554688 188.71875 L 221 188.71875 L 221 203.875 L 154.554688 203.875 Z M 154.554688 188.71875 " clip-rule="nonzero"/></clipPath><clipPath id="44ec021e8d"><path d="M 221 192 L 221.9375 192 L 221.9375 193 L 221 193 Z M 221 192 " clip-rule="nonzero"/></clipPath></defs><path stroke-linecap="butt" transform="matrix(0.751236, 0, 0, 0.75, 34.462293, 199.896109)" fill="none" stroke-linejoin="miter" d="M -0.00180494 0.497896 L 151.753398 0.497896 " stroke="url(#f6813c704c)" stroke-width="1" stroke-miterlimit="4"/><path stroke-linecap="butt" transform="matrix(0.752213, 0, 0, 0.75, 225.375811, 199.896109)" fill="none" stroke-linejoin="miter" d="M -0.00107749 0.497896 L 153.551003 0.497896 " stroke="url(#c59eb859fe)" stroke-width="1" stroke-miterlimit="4"/><g clip-path="url(#cab38ba7d2)"><path fill="#b88c33" d="M 216.109375 201.625 C 215.457031 201.875 214.753906 202.035156 214.039062 202.160156 C 215.996094 200.566406 217.097656 198 217.128906 195.285156 C 217.136719 194.371094 215.710938 194.371094 215.703125 195.285156 C 215.660156 199.277344 213.246094 201.597656 210.042969 202.082031 C 210.417969 200.453125 210.960938 198.84375 211.738281 197.371094 C 213.144531 194.695312 217.335938 193.324219 220.40625 193.253906 C 220.121094 196.199219 218.859375 200.566406 216.109375 201.625 Z M 208.574219 202.171875 C 207.515625 202.152344 206.410156 201.964844 205.292969 201.585938 C 204.496094 201.3125 203.710938 201.03125 202.9375 200.75 C 205.070312 200.5 207.257812 199.773438 208.71875 199.035156 C 209.070312 198.855469 209.402344 198.617188 209.714844 198.347656 C 209.203125 199.585938 208.835938 200.882812 208.574219 202.171875 Z M 199.261719 198.894531 C 199.175781 198.214844 199.777344 196.78125 199.917969 196.351562 C 200.480469 194.613281 201.40625 192.945312 202.585938 191.550781 C 204.59375 189.175781 209.246094 187.832031 212.488281 187.78125 C 212.199219 190.9375 210.890625 195.714844 208.46875 197.527344 C 207.382812 198.339844 205.203125 199.082031 203.125 199.359375 C 204.621094 198.738281 205.949219 197.808594 206.972656 196.390625 C 208.21875 194.660156 208.523438 192.414062 208.53125 190.34375 C 208.535156 189.433594 207.113281 189.433594 207.109375 190.34375 C 207.101562 192.015625 206.878906 193.640625 206.078125 195.136719 C 204.75 197.625 201.921875 198.566406 199.261719 198.894531 Z M 189.359375 196.898438 C 189.566406 195.476562 190.234375 192.003906 192.460938 190.15625 C 194.6875 188.308594 197.882812 187.75 199.898438 187.742188 C 200.816406 187.738281 200.816406 186.328125 199.898438 186.332031 C 197.816406 186.339844 195.773438 186.628906 193.90625 187.480469 C 194.441406 186.1875 194.738281 184.839844 194.625 183.429688 C 197.292969 182.199219 200.71875 181.46875 203.179688 181.265625 C 203.164062 184.976562 201.59375 188.851562 199.789062 192.003906 C 197.835938 195.40625 193.042969 196.097656 189.359375 196.898438 Z M 197.851562 198.945312 C 196.1875 198.394531 194.507812 197.910156 192.765625 197.578125 C 194.882812 197.074219 197 196.398438 198.679688 195.195312 C 198.09375 196.5 197.699219 197.851562 197.851562 198.945312 Z M 189.203125 192.214844 C 189.339844 189.726562 189.863281 187.308594 191.546875 185.492188 C 191.964844 185.039062 192.5 184.628906 193.105469 184.246094 C 192.984375 186.011719 192.292969 187.628906 191.359375 189.160156 C 190.460938 190.011719 189.78125 191.03125 189.261719 192.140625 C 189.242188 192.164062 189.222656 192.1875 189.203125 192.214844 Z M 188.019531 190.070312 C 187.691406 188.015625 186.988281 186.078125 185.519531 184.492188 C 184.828125 183.742188 183.886719 183.085938 182.804688 182.519531 C 182.839844 182.363281 182.867188 182.210938 182.917969 182.054688 C 183.957031 178.808594 186.257812 175.519531 188.46875 172.964844 C 189.285156 172.019531 190.203125 174.617188 190.648438 175.46875 C 191.65625 177.390625 192.3125 179.496094 192.855469 181.582031 C 192.960938 181.980469 193.023438 182.371094 193.066406 182.753906 C 192.367188 183.140625 191.707031 183.546875 191.144531 184.003906 C 189.234375 185.550781 188.386719 187.722656 188.019531 190.070312 Z M 184.535156 189.058594 C 183.523438 187.574219 182.765625 185.984375 182.652344 184.324219 C 182.957031 184.480469 183.261719 184.636719 183.550781 184.796875 C 186.011719 186.15625 186.714844 189.042969 186.875 191.996094 C 186.71875 191.824219 185.304688 189.777344 184.535156 189.058594 Z M 176.273438 192.003906 C 174.28125 189.210938 172.898438 184.820312 172.878906 181.28125 C 175.632812 181.519531 178.519531 182.414062 181.117188 183.585938 C 181.023438 184.839844 181.324219 186.089844 181.867188 187.300781 C 180.089844 186.550781 178.066406 186.339844 176.160156 186.328125 C 175.242188 186.328125 175.242188 187.738281 176.160156 187.742188 C 178.230469 187.75 181.164062 187.960938 183.359375 189.867188 C 185.550781 191.777344 186.472656 195.328125 186.699219 196.890625 C 182.886719 196.03125 178.660156 195.359375 176.273438 192.003906 Z M 178.003906 199.25 C 177.675781 197.894531 177.382812 196.359375 176.949219 194.875 C 178.851562 196.425781 181.449219 197.171875 183.960938 197.734375 C 182.152344 198.148438 180.117188 198.703125 178.003906 199.25 Z M 170.144531 195.136719 C 169.292969 193.703125 169.121094 191.972656 169.113281 190.34375 C 169.113281 189.433594 167.6875 189.433594 167.691406 190.34375 C 167.699219 192.476562 168.0625 194.574219 169.25 196.390625 C 169.992188 197.523438 171.003906 198.335938 172.148438 198.9375 C 170.308594 198.777344 168.550781 198.320312 167.207031 197.09375 C 165.171875 195.242188 164.011719 190.710938 163.742188 187.777344 C 166.769531 187.832031 169.910156 189.09375 172.472656 190.539062 C 175.210938 192.082031 175.808594 195.871094 176.449219 198.828125 C 173.90625 198.433594 171.511719 197.445312 170.144531 195.136719 Z M 167.546875 201.132812 C 167.292969 200.21875 166.984375 199.3125 166.621094 198.421875 C 168.398438 199.917969 170.804688 200.3125 173.21875 200.386719 C 171.253906 200.792969 169.320312 201.082031 167.546875 201.132812 Z M 165.488281 201.070312 C 161.851562 200.710938 159.234375 198.90625 159 194.242188 C 158.957031 193.332031 157.53125 193.328125 157.578125 194.242188 C 157.738281 197.480469 158.828125 199.554688 160.511719 200.824219 C 160.242188 200.765625 159.960938 200.730469 159.695312 200.65625 C 156.789062 199.855469 155.5 195.15625 155.214844 192.207031 C 158.253906 192.277344 162.109375 193.632812 163.816406 196.035156 C 164.851562 197.496094 165.53125 199.273438 166.035156 201.015625 C 165.851562 201.035156 165.671875 201.054688 165.488281 201.070312 Z M 221.171875 191.832031 C 218.585938 191.695312 214.609375 192.625 212.3125 194.46875 C 213.359375 191.957031 213.871094 189.042969 213.964844 187.070312 C 213.980469 186.671875 213.625 186.382812 213.25 186.363281 C 210.019531 186.191406 205.519531 187.367188 202.664062 189.605469 C 203.96875 186.707031 204.769531 183.445312 204.605469 180.511719 C 204.585938 180.140625 204.296875 179.785156 203.894531 179.804688 C 201.074219 179.929688 197.421875 180.722656 194.40625 182.082031 C 193.628906 178.191406 192.109375 173.988281 189.375 171.078125 C 189.105469 170.785156 188.648438 170.824219 188.371094 171.078125 C 185.324219 173.84375 182.800781 178 181.484375 181.902344 C 178.425781 180.609375 174.699219 179.917969 172.164062 179.804688 C 171.761719 179.785156 171.472656 180.140625 171.453125 180.511719 C 171.292969 183.386719 172.058594 186.578125 173.316406 189.433594 C 170.398438 187.53125 166.410156 186.179688 162.972656 186.363281 C 162.597656 186.382812 162.242188 186.671875 162.257812 187.070312 C 162.347656 189.042969 162.839844 191.507812 163.679688 193.726562 C 161.445312 191.699219 157.175781 190.644531 154.449219 190.789062 C 154.078125 190.808594 153.71875 191.097656 153.738281 191.496094 C 153.882812 194.695312 155.175781 199.925781 158.242188 201.597656 C 160.3125 202.726562 162.210938 202.675781 165.558594 202.492188 C 175.183594 201.960938 183.382812 198.640625 188.449219 198.515625 C 192.867188 198.410156 197.136719 199.847656 201.175781 201.464844 C 203.675781 202.46875 206.367188 203.59375 209.097656 203.792969 C 218.929688 204.523438 219.660156 200.28125 220.226562 198.863281 C 221.03125 196.851562 221.785156 194.71875 221.882812 192.539062 C 221.902344 192.140625 221.546875 191.851562 221.171875 191.832031 " fill-opacity="1" fill-rule="nonzero"/></g><g clip-path="url(#520b252ae5)"><path fill="#a26d29" d="M 208.574219 202.171875 C 207.515625 202.152344 206.410156 201.964844 205.292969 201.585938 C 204.496094 201.3125 203.710938 201.03125 202.9375 200.75 C 205.070312 200.5 207.257812 199.773438 208.71875 199.035156 C 209.070312 198.855469 209.402344 198.617188 209.714844 198.347656 C 209.203125 199.585938 208.835938 200.882812 208.574219 202.171875 Z M 197.851562 198.945312 C 196.1875 198.394531 194.507812 197.910156 192.765625 197.578125 C 194.882812 197.074219 197 196.398438 198.679688 195.195312 C 198.09375 196.5 197.699219 197.851562 197.851562 198.945312 Z M 178.003906 199.25 C 177.675781 197.894531 177.382812 196.359375 176.949219 194.875 C 178.851562 196.425781 181.449219 197.171875 183.960938 197.734375 C 182.152344 198.148438 180.117188 198.703125 178.003906 199.25 Z M 167.546875 201.132812 C 167.292969 200.21875 166.984375 199.3125 166.621094 198.421875 C 168.398438 199.917969 170.804688 200.3125 173.21875 200.386719 C 171.253906 200.792969 169.320312 201.082031 167.546875 201.132812 Z M 219.238281 198.011719 C 218.542969 199.664062 217.523438 201.082031 216.109375 201.625 C 215.457031 201.875 214.753906 202.035156 214.039062 202.160156 C 215.320312 201.113281 216.234375 199.648438 216.722656 198 C 216.230469 198.417969 215.726562 198.71875 215.332031 198.730469 C 215.207031 198.734375 215.066406 198.734375 214.921875 198.722656 C 213.953125 200.625 212.171875 201.757812 210.042969 202.082031 C 210.417969 200.453125 210.960938 198.84375 211.738281 197.371094 C 211.878906 197.097656 212.054688 196.835938 212.253906 196.589844 C 212.253906 196.417969 212.273438 196.234375 212.316406 196.035156 C 212.5 195.175781 212.6875 194.542969 212.875 194.0625 C 212.679688 194.191406 212.492188 194.328125 212.3125 194.46875 C 212.496094 194.027344 212.664062 193.574219 212.816406 193.117188 L 212.617188 193.257812 C 212.207031 194.40625 211.429688 195.558594 210.605469 196.398438 C 209.484375 197.542969 208.269531 198.117188 207.859375 197.914062 C 206.679688 198.566406 204.867188 199.125 203.125 199.359375 C 204.621094 198.738281 205.949219 197.808594 206.972656 196.390625 C 207.402344 195.796875 207.714844 195.144531 207.945312 194.460938 C 207.015625 195.566406 205.722656 196.292969 205.082031 196.484375 C 203.589844 197.984375 201.375 198.632812 199.261719 198.894531 C 199.175781 198.214844 199.777344 196.78125 199.917969 196.351562 C 200.355469 195.007812 201.007812 193.703125 201.828125 192.535156 C 202.332031 191.355469 203.035156 189.960938 203.765625 188.84375 C 203.40625 189.066406 203.0625 189.300781 202.738281 189.550781 C 201.894531 191.148438 200.566406 193.039062 199.027344 193.050781 C 196.773438 195.5625 192.628906 196.1875 189.359375 196.898438 C 189.523438 195.78125 189.964844 193.40625 191.226562 191.539062 C 190.453125 192.164062 189.269531 192.539062 188.066406 192.550781 C 186.625 192.539062 185.210938 192.003906 184.5 191.144531 C 184.5 191.140625 184.496094 191.140625 184.496094 191.140625 C 185.882812 193.082031 186.515625 195.632812 186.699219 196.890625 C 183.320312 196.128906 179.621094 195.511719 177.160156 193.050781 C 175.496094 193.082031 174.078125 190.910156 173.234375 189.242188 C 173.261719 189.308594 173.289062 189.371094 173.316406 189.433594 C 173.015625 189.238281 172.703125 189.046875 172.382812 188.867188 C 172.976562 189.777344 173.550781 190.867188 174.011719 191.878906 C 175.480469 193.734375 175.953125 196.53125 176.449219 198.828125 C 174.488281 198.523438 172.617188 197.867188 171.234375 196.523438 C 170.730469 196.453125 169.40625 195.785156 168.394531 194.695312 C 168.617188 195.28125 168.894531 195.847656 169.25 196.390625 C 169.992188 197.523438 171.003906 198.335938 172.148438 198.9375 C 170.78125 198.820312 169.457031 198.535156 168.316406 197.890625 C 168.3125 197.890625 168.3125 197.890625 168.3125 197.890625 C 167.945312 198.15625 166.6875 197.582031 165.527344 196.398438 C 164.703125 195.558594 163.925781 194.40625 163.515625 193.257812 L 163.503906 193.25 C 163.5625 193.410156 163.617188 193.566406 163.679688 193.726562 C 163.386719 193.460938 163.058594 193.210938 162.703125 192.980469 C 163.054688 193.46875 163.441406 194.292969 163.816406 196.035156 C 164.851562 197.496094 165.53125 199.273438 166.035156 201.015625 C 165.851562 201.035156 165.671875 201.054688 165.488281 201.070312 C 163.34375 200.859375 161.558594 200.144531 160.402344 198.640625 C 159.515625 198.292969 158.351562 197.039062 157.816406 196.199219 C 158.246094 198.347656 159.199219 199.832031 160.511719 200.824219 C 160.242188 200.769531 159.960938 200.730469 159.695312 200.65625 C 158.472656 200.320312 157.539062 199.292969 156.84375 197.996094 C 155.941406 197.703125 155.09375 196.839844 154.582031 196.210938 C 155.292969 198.476562 156.472656 200.628906 158.242188 201.597656 C 160.3125 202.726562 162.214844 202.675781 165.558594 202.492188 C 175.183594 201.960938 183.382812 198.640625 188.449219 198.515625 C 192.867188 198.410156 197.136719 199.847656 201.175781 201.464844 C 203.675781 202.46875 206.367188 203.59375 209.097656 203.792969 C 218.929688 204.523438 219.660156 200.28125 220.226562 198.863281 C 220.492188 198.203125 220.75 197.53125 220.980469 196.847656 C 220.488281 197.339844 219.875 197.820312 219.238281 198.011719 " fill-opacity="1" fill-rule="nonzero"/></g><path fill="#a26d29" d="M 182.09375 188.984375 C 182.535156 189.230469 182.957031 189.519531 183.359375 189.867188 C 183.472656 189.96875 183.582031 190.074219 183.691406 190.179688 C 183.132812 189.5625 182.195312 187.875 181.808594 187.160156 C 181.828125 187.207031 181.847656 187.253906 181.867188 187.300781 C 181.316406 187.070312 180.742188 186.886719 180.152344 186.75 C 180.597656 187.398438 181.351562 188.273438 182.09375 188.984375 " fill-opacity="1" fill-rule="nonzero"/><path fill="#a26d29" d="M 195.609375 186.863281 C 195.039062 187.023438 194.476562 187.222656 193.929688 187.46875 C 193.605469 188.140625 192.976562 189.398438 192.492188 190.132812 C 192.851562 189.835938 193.234375 189.578125 193.632812 189.34375 C 194.386719 188.574219 195.167969 187.585938 195.609375 186.863281 " fill-opacity="1" fill-rule="nonzero"/><path fill="#a26d29" d="M 182.683594 184.652344 C 182.671875 184.546875 182.660156 184.4375 182.652344 184.332031 C 182.183594 184.09375 181.566406 183.785156 181.117188 183.582031 C 181.09375 183.914062 181.097656 184.242188 181.125 184.574219 C 181.6875 184.574219 182.246094 184.621094 182.683594 184.652344 " fill-opacity="1" fill-rule="nonzero"/><path fill="#a26d29" d="M 183.332031 184.675781 C 183.332031 184.675781 183.296875 184.660156 183.242188 184.628906 C 183.269531 184.644531 183.300781 184.660156 183.328125 184.675781 C 183.328125 184.675781 183.328125 184.675781 183.332031 184.675781 " fill-opacity="1" fill-rule="nonzero"/><path fill="#a26d29" d="M 192.820312 184.429688 C 192.8125 184.4375 192.804688 184.441406 192.796875 184.449219 C 192.804688 184.441406 192.8125 184.4375 192.820312 184.429688 " fill-opacity="1" fill-rule="nonzero"/><path fill="#a26d29" d="M 194.625 183.429688 C 194.625 183.429688 193.875 183.773438 193.105469 184.25 C 193.101562 184.300781 193.097656 184.351562 193.09375 184.402344 C 193.527344 184.328125 194.140625 184.21875 194.644531 184.203125 C 194.652344 183.949219 194.644531 183.691406 194.625 183.429688 " fill-opacity="1" fill-rule="nonzero"/><path fill="#c9a64c" d="M 191.785156 176.082031 L 191.910156 175.960938 L 191.910156 175.785156 L 191.785156 175.664062 L 191.609375 175.664062 L 191.488281 175.785156 L 191.488281 175.960938 L 191.609375 176.082031 L 191.785156 176.082031 " fill-opacity="1" fill-rule="nonzero"/><path fill="#c9a64c" d="M 191.511719 174.96875 L 191.390625 174.84375 L 191.214844 174.84375 L 191.089844 174.96875 L 191.089844 175.140625 L 191.214844 175.265625 L 191.390625 175.265625 L 191.511719 175.140625 L 191.511719 174.96875 " fill-opacity="1" fill-rule="nonzero"/><path fill="#c9a64c" d="M 190.972656 174.457031 L 191.09375 174.335938 L 191.09375 174.160156 L 190.972656 174.039062 L 190.796875 174.039062 L 190.671875 174.160156 L 190.671875 174.335938 L 190.796875 174.457031 L 190.972656 174.457031 " fill-opacity="1" fill-rule="nonzero"/><path fill="#c9a64c" d="M 190.515625 173.253906 L 190.339844 173.253906 L 190.214844 173.375 L 190.214844 173.550781 L 190.339844 173.671875 L 190.515625 173.671875 L 190.636719 173.550781 L 190.636719 173.375 L 190.515625 173.253906 " fill-opacity="1" fill-rule="nonzero"/><path fill="#c9a64c" d="M 189.84375 172.492188 L 189.71875 172.613281 L 189.71875 172.789062 L 189.84375 172.910156 L 190.015625 172.910156 L 190.140625 172.789062 L 190.140625 172.613281 L 190.015625 172.492188 L 189.84375 172.492188 " fill-opacity="1" fill-rule="nonzero"/><path fill="#c9a64c" d="M 189.210938 171.859375 L 189.089844 171.980469 L 189.089844 172.15625 L 189.210938 172.277344 L 189.386719 172.277344 L 189.511719 172.15625 L 189.511719 171.980469 L 189.386719 171.859375 L 189.210938 171.859375 " fill-opacity="1" fill-rule="nonzero"/><path fill="#c9a64c" d="M 188.640625 172.121094 L 188.765625 172 L 188.765625 171.824219 L 188.640625 171.703125 L 188.46875 171.703125 L 188.34375 171.824219 L 188.34375 172 L 188.46875 172.121094 L 188.640625 172.121094 " fill-opacity="1" fill-rule="nonzero"/><path fill="#c9a64c" d="M 187.914062 172.671875 L 188.039062 172.550781 L 188.039062 172.375 L 187.914062 172.253906 L 187.738281 172.253906 L 187.613281 172.375 L 187.613281 172.550781 L 187.738281 172.671875 L 187.914062 172.671875 " fill-opacity="1" fill-rule="nonzero"/><path fill="#c9a64c" d="M 187.453125 173.070312 L 187.328125 172.949219 L 187.152344 172.949219 L 187.03125 173.070312 L 187.03125 173.246094 L 187.152344 173.367188 L 187.328125 173.367188 L 187.453125 173.246094 L 187.453125 173.070312 " fill-opacity="1" fill-rule="nonzero"/><path fill="#c9a64c" d="M 186.574219 173.652344 L 186.449219 173.773438 L 186.449219 173.945312 L 186.574219 174.070312 L 186.75 174.070312 L 186.871094 173.945312 L 186.871094 173.773438 L 186.75 173.652344 L 186.574219 173.652344 " fill-opacity="1" fill-rule="nonzero"/><path fill="#c9a64c" d="M 186.035156 174.382812 L 185.914062 174.507812 L 185.914062 174.679688 L 186.035156 174.804688 L 186.210938 174.804688 L 186.335938 174.679688 L 186.335938 174.507812 L 186.210938 174.382812 L 186.035156 174.382812 " fill-opacity="1" fill-rule="nonzero"/><path fill="#c9a64c" d="M 185.507812 175.125 L 185.382812 175.246094 L 185.382812 175.421875 L 185.507812 175.542969 L 185.683594 175.542969 L 185.804688 175.421875 L 185.804688 175.246094 L 185.683594 175.125 L 185.507812 175.125 " fill-opacity="1" fill-rule="nonzero"/><path fill="#c9a64c" d="M 185.171875 176.296875 L 185.296875 176.175781 L 185.296875 176 L 185.171875 175.878906 L 184.996094 175.878906 L 184.875 176 L 184.875 176.175781 L 184.996094 176.296875 L 185.171875 176.296875 " fill-opacity="1" fill-rule="nonzero"/><path fill="#c9a64c" d="M 182.761719 180.976562 C 182.671875 180.816406 182.644531 180.332031 182.59375 180.332031 C 182.539062 180.332031 182.554688 180.851562 182.425781 180.980469 C 182.316406 181.09375 181.9375 181.089844 181.941406 181.160156 C 181.945312 181.234375 182.378906 181.234375 182.46875 181.367188 C 182.5625 181.5 182.492188 181.984375 182.59375 181.988281 C 182.691406 181.992188 182.621094 181.484375 182.726562 181.359375 C 182.839844 181.222656 183.347656 181.292969 183.332031 181.160156 C 183.324219 181.101562 182.835938 181.105469 182.761719 180.976562 " fill-opacity="1" fill-rule="nonzero"/><path fill="#c9a64c" d="M 210.972656 196.625 C 210.851562 196.417969 210.820312 195.777344 210.75 195.777344 C 210.679688 195.777344 210.699219 196.460938 210.53125 196.632812 C 210.382812 196.78125 209.886719 196.777344 209.894531 196.867188 C 209.898438 196.964844 210.46875 196.96875 210.585938 197.140625 C 210.707031 197.316406 210.617188 197.953125 210.75 197.957031 C 210.878906 197.964844 210.789062 197.296875 210.921875 197.132812 C 211.074219 196.949219 211.742188 197.042969 211.71875 196.867188 C 211.710938 196.789062 211.070312 196.796875 210.972656 196.625 " fill-opacity="1" fill-rule="nonzero"/><path fill="#c9a64c" d="M 165.378906 196.101562 C 165.257812 195.894531 165.222656 195.253906 165.152344 195.253906 C 165.085938 195.253906 165.105469 195.941406 164.9375 196.109375 C 164.789062 196.257812 164.292969 196.257812 164.296875 196.347656 C 164.304688 196.441406 164.875 196.445312 164.992188 196.621094 C 165.113281 196.796875 165.023438 197.429688 165.152344 197.4375 C 165.285156 197.441406 165.191406 196.773438 165.328125 196.609375 C 165.480469 196.425781 166.148438 196.519531 166.125 196.347656 C 166.113281 196.265625 165.476562 196.273438 165.378906 196.101562 " fill-opacity="1" fill-rule="nonzero"/><path fill="#c9a64c" d="M 200.347656 193.105469 C 200.226562 192.898438 200.191406 192.257812 200.121094 192.257812 C 200.054688 192.257812 200.074219 192.941406 199.90625 193.109375 C 199.757812 193.261719 199.261719 193.257812 199.265625 193.347656 C 199.269531 193.445312 199.84375 193.445312 199.960938 193.621094 C 200.078125 193.796875 199.992188 194.433594 200.121094 194.4375 C 200.253906 194.445312 200.160156 193.777344 200.296875 193.613281 C 200.449219 193.429688 201.117188 193.523438 201.09375 193.347656 C 201.082031 193.269531 200.441406 193.277344 200.347656 193.105469 " fill-opacity="1" fill-rule="nonzero"/><path fill="#c9a64c" d="M 185.195312 184.992188 L 185.019531 184.992188 L 184.894531 185.117188 L 184.894531 185.289062 L 185.019531 185.414062 L 185.195312 185.414062 L 185.316406 185.289062 L 185.316406 185.117188 L 185.195312 184.992188 " fill-opacity="1" fill-rule="nonzero"/><path fill="#c9a64c" d="M 184.257812 184.488281 L 184.136719 184.609375 L 184.136719 184.785156 L 184.257812 184.90625 L 184.433594 184.90625 L 184.558594 184.785156 L 184.558594 184.609375 L 184.433594 184.488281 L 184.257812 184.488281 " fill-opacity="1" fill-rule="nonzero"/><path fill="#c9a64c" d="M 183.5 183.984375 L 183.375 184.105469 L 183.375 184.28125 L 183.5 184.402344 L 183.675781 184.402344 L 183.796875 184.28125 L 183.796875 184.105469 L 183.675781 183.984375 L 183.5 183.984375 " fill-opacity="1" fill-rule="nonzero"/><path fill="#c9a64c" d="M 182.738281 183.476562 L 182.617188 183.601562 L 182.617188 183.773438 L 182.738281 183.898438 L 182.914062 183.898438 L 183.039062 183.773438 L 183.039062 183.601562 L 182.914062 183.476562 L 182.738281 183.476562 " fill-opacity="1" fill-rule="nonzero"/><path fill="#c9a64c" d="M 181.964844 183 L 181.839844 183.121094 L 181.839844 183.296875 L 181.964844 183.417969 L 182.140625 183.417969 L 182.261719 183.296875 L 182.261719 183.121094 L 182.140625 183 L 181.964844 183 " fill-opacity="1" fill-rule="nonzero"/><path fill="#c9a64c" d="M 181.117188 182.652344 L 180.996094 182.777344 L 180.996094 182.949219 L 181.117188 183.074219 L 181.292969 183.074219 L 181.417969 182.949219 L 181.417969 182.777344 L 181.292969 182.652344 L 181.117188 182.652344 " fill-opacity="1" fill-rule="nonzero"/><path fill="#c9a64c" d="M 180.574219 182.429688 L 180.449219 182.308594 L 180.273438 182.308594 L 180.148438 182.429688 L 180.148438 182.601562 L 180.273438 182.726562 L 180.449219 182.726562 L 180.574219 182.601562 L 180.574219 182.429688 " fill-opacity="1" fill-rule="nonzero"/><path fill="#c9a64c" d="M 179.726562 182.082031 L 179.601562 181.960938 L 179.429688 181.960938 L 179.304688 182.082031 L 179.304688 182.257812 L 179.429688 182.378906 L 179.601562 182.378906 L 179.726562 182.257812 L 179.726562 182.082031 " fill-opacity="1" fill-rule="nonzero"/><path fill="#c9a64c" d="M 178.878906 181.746094 L 178.753906 181.621094 L 178.578125 181.621094 L 178.457031 181.746094 L 178.457031 181.917969 L 178.578125 182.042969 L 178.753906 182.042969 L 178.878906 181.917969 L 178.878906 181.746094 " fill-opacity="1" fill-rule="nonzero"/><path fill="#c9a64c" d="M 177.996094 181.511719 L 177.871094 181.386719 L 177.695312 181.386719 L 177.574219 181.511719 L 177.574219 181.683594 L 177.695312 181.808594 L 177.871094 181.808594 L 177.996094 181.683594 L 177.996094 181.511719 " fill-opacity="1" fill-rule="nonzero"/><path fill="#c9a64c" d="M 177.113281 181.449219 L 177.113281 181.277344 L 176.988281 181.152344 L 176.8125 181.152344 L 176.6875 181.277344 L 176.6875 181.449219 L 176.8125 181.574219 L 176.988281 181.574219 L 177.113281 181.449219 " fill-opacity="1" fill-rule="nonzero"/><path fill="#c9a64c" d="M 176.226562 181.214844 L 176.226562 181.039062 L 176.105469 180.917969 L 175.929688 180.917969 L 175.804688 181.039062 L 175.804688 181.214844 L 175.929688 181.335938 L 176.105469 181.335938 L 176.226562 181.214844 " fill-opacity="1" fill-rule="nonzero"/><path fill="#c9a64c" d="M 175.210938 180.722656 L 175.035156 180.722656 L 174.914062 180.847656 L 174.914062 181.019531 L 175.035156 181.144531 L 175.210938 181.144531 L 175.335938 181.019531 L 175.335938 180.847656 L 175.210938 180.722656 " fill-opacity="1" fill-rule="nonzero"/><path fill="#c9a64c" d="M 174.136719 180.566406 L 174.011719 180.691406 L 174.011719 180.863281 L 174.136719 180.988281 L 174.3125 180.988281 L 174.433594 180.863281 L 174.433594 180.691406 L 174.3125 180.566406 L 174.136719 180.566406 " fill-opacity="1" fill-rule="nonzero"/><path fill="#c9a64c" d="M 173.234375 180.410156 L 173.109375 180.535156 L 173.109375 180.707031 L 173.234375 180.828125 L 173.410156 180.828125 L 173.535156 180.707031 L 173.535156 180.535156 L 173.410156 180.410156 L 173.234375 180.410156 " fill-opacity="1" fill-rule="nonzero"/><path fill="#c9a64c" d="M 172.328125 180.304688 L 172.203125 180.429688 L 172.203125 180.601562 L 172.328125 180.726562 L 172.5 180.726562 L 172.625 180.601562 L 172.625 180.429688 L 172.5 180.304688 L 172.328125 180.304688 " fill-opacity="1" fill-rule="nonzero"/><path fill="#c9a64c" d="M 171.960938 189.332031 L 171.835938 189.453125 L 171.835938 189.628906 L 171.960938 189.75 L 172.136719 189.75 L 172.257812 189.628906 L 172.257812 189.453125 L 172.136719 189.332031 L 171.960938 189.332031 " fill-opacity="1" fill-rule="nonzero"/><path fill="#c9a64c" d="M 171.125 188.964844 L 171 189.085938 L 171 189.261719 L 171.125 189.382812 L 171.296875 189.382812 L 171.421875 189.261719 L 171.421875 189.085938 L 171.296875 188.964844 L 171.125 188.964844 " fill-opacity="1" fill-rule="nonzero"/><path fill="#c9a64c" d="M 170.460938 188.597656 L 170.285156 188.597656 L 170.164062 188.71875 L 170.164062 188.894531 L 170.285156 189.015625 L 170.460938 189.015625 L 170.585938 188.894531 L 170.585938 188.71875 L 170.460938 188.597656 " fill-opacity="1" fill-rule="nonzero"/><path fill="#c9a64c" d="M 169.449219 188.230469 L 169.328125 188.351562 L 169.328125 188.527344 L 169.449219 188.648438 L 169.625 188.648438 L 169.75 188.523438 L 169.75 188.351562 L 169.625 188.230469 L 169.449219 188.230469 " fill-opacity="1" fill-rule="nonzero"/><path fill="#c9a64c" d="M 168.613281 187.863281 L 168.488281 187.984375 L 168.488281 188.160156 L 168.613281 188.28125 L 168.789062 188.28125 L 168.914062 188.160156 L 168.914062 187.984375 L 168.789062 187.863281 L 168.613281 187.863281 " fill-opacity="1" fill-rule="nonzero"/><path fill="#c9a64c" d="M 167.726562 187.644531 L 167.605469 187.765625 L 167.605469 187.9375 L 167.726562 188.0625 L 167.902344 188.0625 L 168.027344 187.9375 L 168.027344 187.765625 L 167.902344 187.644531 L 167.726562 187.644531 " fill-opacity="1" fill-rule="nonzero"/><path fill="#c9a64c" d="M 166.835938 187.433594 L 166.714844 187.558594 L 166.714844 187.730469 L 166.835938 187.851562 L 167.011719 187.851562 L 167.136719 187.730469 L 167.136719 187.558594 L 167.011719 187.433594 L 166.835938 187.433594 " fill-opacity="1" fill-rule="nonzero"/><path fill="#c9a64c" d="M 165.949219 187.226562 L 165.824219 187.347656 L 165.824219 187.519531 L 165.949219 187.644531 L 166.121094 187.644531 L 166.246094 187.519531 L 166.246094 187.347656 L 166.121094 187.226562 L 165.949219 187.226562 " fill-opacity="1" fill-rule="nonzero"/><path fill="#c9a64c" d="M 165.226562 187.480469 L 165.347656 187.359375 L 165.347656 187.183594 L 165.226562 187.0625 L 165.050781 187.0625 L 164.925781 187.183594 L 164.925781 187.359375 L 165.050781 187.480469 L 165.226562 187.480469 " fill-opacity="1" fill-rule="nonzero"/><path fill="#c9a64c" d="M 164.4375 187.292969 L 164.4375 187.117188 L 164.3125 186.996094 L 164.136719 186.996094 L 164.015625 187.117188 L 164.015625 187.292969 L 164.136719 187.414062 L 164.3125 187.414062 L 164.4375 187.292969 " fill-opacity="1" fill-rule="nonzero"/><path fill="#c9a64c" d="M 163.226562 186.929688 L 163.101562 187.050781 L 163.101562 187.226562 L 163.226562 187.347656 L 163.402344 187.347656 L 163.523438 187.226562 L 163.523438 187.050781 L 163.402344 186.929688 L 163.226562 186.929688 " fill-opacity="1" fill-rule="nonzero"/><path fill="#c9a64c" d="M 161.289062 192.828125 L 161.164062 192.953125 L 161.164062 193.125 L 161.289062 193.25 L 161.464844 193.25 L 161.589844 193.125 L 161.589844 192.953125 L 161.464844 192.828125 L 161.289062 192.828125 " fill-opacity="1" fill-rule="nonzero"/><path fill="#c9a64c" d="M 160.441406 192.488281 L 160.316406 192.613281 L 160.316406 192.785156 L 160.441406 192.910156 L 160.617188 192.910156 L 160.738281 192.785156 L 160.738281 192.613281 L 160.617188 192.488281 L 160.441406 192.488281 " fill-opacity="1" fill-rule="nonzero"/><path fill="#c9a64c" d="M 159.59375 192.152344 L 159.46875 192.273438 L 159.46875 192.449219 L 159.59375 192.570312 L 159.769531 192.570312 L 159.890625 192.449219 L 159.890625 192.273438 L 159.769531 192.152344 L 159.59375 192.152344 " fill-opacity="1" fill-rule="nonzero"/><path fill="#c9a64c" d="M 158.917969 191.824219 L 158.742188 191.824219 L 158.617188 191.945312 L 158.617188 192.121094 L 158.742188 192.242188 L 158.917969 192.242188 L 159.039062 192.121094 L 159.039062 191.945312 L 158.917969 191.824219 " fill-opacity="1" fill-rule="nonzero"/><path fill="#c9a64c" d="M 157.84375 191.65625 L 157.71875 191.777344 L 157.71875 191.949219 L 157.84375 192.074219 L 158.015625 192.074219 L 158.140625 191.949219 L 158.140625 191.777344 L 158.015625 191.65625 L 157.84375 191.65625 " fill-opacity="1" fill-rule="nonzero"/><path fill="#c9a64c" d="M 156.945312 191.488281 L 156.820312 191.609375 L 156.820312 191.78125 L 156.945312 191.90625 L 157.117188 191.90625 L 157.242188 191.78125 L 157.242188 191.609375 L 157.117188 191.488281 L 156.945312 191.488281 " fill-opacity="1" fill-rule="nonzero"/><path fill="#c9a64c" d="M 156.042969 191.320312 L 155.921875 191.441406 L 155.921875 191.613281 L 156.042969 191.738281 L 156.21875 191.738281 L 156.34375 191.613281 L 156.34375 191.441406 L 156.21875 191.320312 L 156.042969 191.320312 " fill-opacity="1" fill-rule="nonzero"/><path fill="#c9a64c" d="M 155.128906 191.296875 L 155.007812 191.417969 L 155.007812 191.59375 L 155.128906 191.714844 L 155.304688 191.714844 L 155.429688 191.59375 L 155.429688 191.417969 L 155.304688 191.296875 L 155.128906 191.296875 " fill-opacity="1" fill-rule="nonzero"/><path fill="#c9a64c" d="M 154.214844 191.277344 L 154.09375 191.402344 L 154.09375 191.574219 L 154.214844 191.699219 L 154.390625 191.699219 L 154.515625 191.574219 L 154.515625 191.402344 L 154.390625 191.277344 L 154.214844 191.277344 " fill-opacity="1" fill-rule="nonzero"/><path fill="#c9a64c" d="M 190.917969 184.707031 L 190.796875 184.832031 L 190.796875 185.003906 L 190.917969 185.128906 L 191.09375 185.128906 L 191.21875 185.003906 L 191.21875 184.832031 L 191.09375 184.707031 L 190.917969 184.707031 " fill-opacity="1" fill-rule="nonzero"/><path fill="#c9a64c" d="M 191.683594 184.207031 L 191.558594 184.332031 L 191.558594 184.503906 L 191.683594 184.628906 L 191.859375 184.628906 L 191.980469 184.503906 L 191.980469 184.332031 L 191.859375 184.207031 L 191.683594 184.207031 " fill-opacity="1" fill-rule="nonzero"/><path fill="#c9a64c" d="M 192.445312 183.707031 L 192.324219 183.832031 L 192.324219 184.003906 L 192.445312 184.128906 L 192.621094 184.128906 L 192.746094 184.003906 L 192.746094 183.832031 L 192.621094 183.707031 L 192.445312 183.707031 " fill-opacity="1" fill-rule="nonzero"/><path fill="#c9a64c" d="M 193.210938 183.210938 L 193.085938 183.332031 L 193.085938 183.503906 L 193.210938 183.628906 L 193.386719 183.628906 L 193.507812 183.503906 L 193.507812 183.332031 L 193.386719 183.210938 L 193.210938 183.210938 " fill-opacity="1" fill-rule="nonzero"/><path fill="#c9a64c" d="M 194.28125 182.851562 L 194.15625 182.726562 L 193.984375 182.726562 L 193.859375 182.851562 L 193.859375 183.023438 L 193.984375 183.144531 L 194.15625 183.144531 L 194.28125 183.023438 L 194.28125 182.851562 " fill-opacity="1" fill-rule="nonzero"/><path fill="#c9a64c" d="M 195.132812 182.519531 L 195.011719 182.398438 L 194.835938 182.398438 L 194.710938 182.519531 L 194.710938 182.695312 L 194.835938 182.816406 L 195.011719 182.816406 L 195.132812 182.695312 L 195.132812 182.519531 " fill-opacity="1" fill-rule="nonzero"/><path fill="#c9a64c" d="M 195.984375 182.191406 L 195.863281 182.070312 L 195.6875 182.070312 L 195.5625 182.191406 L 195.5625 182.363281 L 195.6875 182.488281 L 195.863281 182.488281 L 195.988281 182.363281 L 195.984375 182.191406 " fill-opacity="1" fill-rule="nonzero"/><path fill="#c9a64c" d="M 196.839844 181.863281 L 196.714844 181.738281 L 196.539062 181.738281 L 196.417969 181.863281 L 196.417969 182.035156 L 196.539062 182.160156 L 196.714844 182.160156 L 196.839844 182.035156 L 196.839844 181.863281 " fill-opacity="1" fill-rule="nonzero"/><path fill="#c9a64c" d="M 197.394531 181.414062 L 197.269531 181.539062 L 197.269531 181.710938 L 197.394531 181.835938 L 197.570312 181.835938 L 197.691406 181.710938 L 197.691406 181.539062 L 197.570312 181.414062 L 197.394531 181.414062 " fill-opacity="1" fill-rule="nonzero"/><path fill="#c9a64c" d="M 198.285156 181.207031 L 198.160156 181.328125 L 198.160156 181.503906 L 198.285156 181.625 L 198.457031 181.625 L 198.582031 181.503906 L 198.582031 181.328125 L 198.457031 181.207031 L 198.285156 181.207031 " fill-opacity="1" fill-rule="nonzero"/><path fill="#c9a64c" d="M 199.472656 181.296875 L 199.472656 181.121094 L 199.347656 181 L 199.175781 181 L 199.050781 181.121094 L 199.050781 181.296875 L 199.175781 181.417969 L 199.347656 181.417969 L 199.472656 181.296875 " fill-opacity="1" fill-rule="nonzero"/><path fill="#c9a64c" d="M 200.238281 181.210938 L 200.363281 181.085938 L 200.363281 180.914062 L 200.238281 180.789062 L 200.0625 180.789062 L 199.941406 180.914062 L 199.941406 181.085938 L 200.066406 181.210938 L 200.238281 181.210938 " fill-opacity="1" fill-rule="nonzero"/><path fill="#c9a64c" d="M 201.136719 180.625 L 200.960938 180.625 L 200.839844 180.746094 L 200.839844 180.921875 L 200.960938 181.042969 L 201.136719 181.042969 L 201.261719 180.921875 L 201.261719 180.746094 L 201.136719 180.625 " fill-opacity="1" fill-rule="nonzero"/><path fill="#c9a64c" d="M 201.867188 180.5 L 201.746094 180.621094 L 201.746094 180.796875 L 201.867188 180.917969 L 202.042969 180.917969 L 202.167969 180.796875 L 202.167969 180.621094 L 202.042969 180.5 L 201.867188 180.5 " fill-opacity="1" fill-rule="nonzero"/><path fill="#c9a64c" d="M 202.773438 180.375 L 202.652344 180.496094 L 202.652344 180.671875 L 202.773438 180.792969 L 202.949219 180.792969 L 203.074219 180.671875 L 203.074219 180.496094 L 202.949219 180.375 L 202.773438 180.375 " fill-opacity="1" fill-rule="nonzero"/><path fill="#c9a64c" d="M 203.6875 180.304688 L 203.5625 180.429688 L 203.5625 180.601562 L 203.6875 180.726562 L 203.863281 180.726562 L 203.984375 180.601562 L 203.984375 180.429688 L 203.863281 180.304688 L 203.6875 180.304688 " fill-opacity="1" fill-rule="nonzero"/><path fill="#c9a64c" d="M 204.878906 188.71875 L 204.757812 188.839844 L 204.757812 189.015625 L 204.878906 189.136719 L 205.054688 189.136719 L 205.179688 189.015625 L 205.179688 188.839844 L 205.054688 188.71875 L 204.878906 188.71875 " fill-opacity="1" fill-rule="nonzero"/><path fill="#c9a64c" d="M 205.722656 188.363281 L 205.597656 188.488281 L 205.597656 188.660156 L 205.722656 188.785156 L 205.898438 188.785156 L 206.019531 188.660156 L 206.019531 188.488281 L 205.898438 188.363281 L 205.722656 188.363281 " fill-opacity="1" fill-rule="nonzero"/><path fill="#c9a64c" d="M 206.738281 188.007812 L 206.5625 188.007812 L 206.441406 188.132812 L 206.441406 188.304688 L 206.566406 188.429688 L 206.738281 188.429688 L 206.863281 188.304688 L 206.863281 188.132812 L 206.738281 188.007812 " fill-opacity="1" fill-rule="nonzero"/><path fill="#c9a64c" d="M 207.582031 187.65625 L 207.40625 187.65625 L 207.28125 187.777344 L 207.28125 187.953125 L 207.40625 188.074219 L 207.582031 188.074219 L 207.703125 187.953125 L 207.703125 187.777344 L 207.582031 187.65625 " fill-opacity="1" fill-rule="nonzero"/><path fill="#c9a64c" d="M 208.273438 187.378906 L 208.148438 187.5 L 208.148438 187.675781 L 208.273438 187.796875 L 208.449219 187.796875 L 208.570312 187.675781 L 208.570312 187.5 L 208.449219 187.378906 L 208.273438 187.378906 " fill-opacity="1" fill-rule="nonzero"/><path fill="#c9a64c" d="M 209.34375 187.191406 L 209.167969 187.191406 L 209.042969 187.3125 L 209.042969 187.488281 L 209.167969 187.609375 L 209.34375 187.609375 L 209.464844 187.488281 L 209.464844 187.3125 L 209.34375 187.191406 " fill-opacity="1" fill-rule="nonzero"/><path fill="#c9a64c" d="M 210.238281 187.421875 L 210.363281 187.300781 L 210.363281 187.125 L 210.238281 187.003906 L 210.0625 187.003906 L 209.9375 187.125 L 209.9375 187.300781 L 210.0625 187.421875 L 210.238281 187.421875 " fill-opacity="1" fill-rule="nonzero"/><path fill="#c9a64c" d="M 211.136719 187.257812 L 211.257812 187.132812 L 211.257812 186.960938 L 211.136719 186.835938 L 210.960938 186.835938 L 210.835938 186.960938 L 210.835938 187.132812 L 210.960938 187.257812 L 211.136719 187.257812 " fill-opacity="1" fill-rule="nonzero"/><path fill="#c9a64c" d="M 212.050781 186.792969 L 211.875 186.792969 L 211.75 186.914062 L 211.75 187.089844 L 211.875 187.210938 L 212.050781 187.210938 L 212.171875 187.089844 L 212.171875 186.914062 L 212.050781 186.792969 " fill-opacity="1" fill-rule="nonzero"/><path fill="#c9a64c" d="M 212.789062 186.746094 L 212.664062 186.867188 L 212.664062 187.042969 L 212.789062 187.164062 L 212.960938 187.164062 L 213.085938 187.042969 L 213.085938 186.867188 L 212.960938 186.746094 L 212.789062 186.746094 " fill-opacity="1" fill-rule="nonzero"/><path fill="#c9a64c" d="M 214.167969 193.894531 L 214.046875 194.019531 L 214.046875 194.191406 L 214.167969 194.316406 L 214.34375 194.316406 L 214.46875 194.191406 L 214.46875 194.019531 L 214.34375 193.894531 L 214.167969 193.894531 " fill-opacity="1" fill-rule="nonzero"/><path fill="#c9a64c" d="M 215.019531 193.558594 L 214.894531 193.679688 L 214.894531 193.855469 L 215.019531 193.976562 L 215.191406 193.976562 L 215.316406 193.855469 L 215.316406 193.679688 L 215.191406 193.558594 L 215.019531 193.558594 " fill-opacity="1" fill-rule="nonzero"/><path fill="#c9a64c" d="M 216.042969 193.21875 L 215.867188 193.21875 L 215.742188 193.34375 L 215.742188 193.515625 L 215.867188 193.640625 L 216.042969 193.640625 L 216.164062 193.515625 L 216.164062 193.34375 L 216.042969 193.21875 " fill-opacity="1" fill-rule="nonzero"/><path fill="#c9a64c" d="M 216.714844 192.882812 L 216.589844 193.003906 L 216.589844 193.179688 L 216.714844 193.300781 L 216.890625 193.300781 L 217.015625 193.179688 L 217.015625 193.003906 L 216.890625 192.882812 L 216.714844 192.882812 " fill-opacity="1" fill-rule="nonzero"/><path fill="#c9a64c" d="M 217.613281 192.710938 L 217.488281 192.835938 L 217.488281 193.007812 L 217.613281 193.132812 L 217.789062 193.132812 L 217.914062 193.007812 L 217.914062 192.835938 L 217.789062 192.710938 L 217.613281 192.710938 " fill-opacity="1" fill-rule="nonzero"/><path fill="#c9a64c" d="M 218.6875 192.546875 L 218.511719 192.546875 L 218.390625 192.671875 L 218.390625 192.84375 L 218.511719 192.96875 L 218.6875 192.96875 L 218.8125 192.84375 L 218.8125 192.671875 L 218.6875 192.546875 " fill-opacity="1" fill-rule="nonzero"/><path fill="#c9a64c" d="M 219.414062 192.382812 L 219.289062 192.507812 L 219.289062 192.679688 L 219.414062 192.804688 L 219.589844 192.804688 L 219.710938 192.679688 L 219.710938 192.507812 L 219.589844 192.382812 L 219.414062 192.382812 " fill-opacity="1" fill-rule="nonzero"/><path fill="#c9a64c" d="M 220.328125 192.363281 L 220.203125 192.484375 L 220.203125 192.660156 L 220.328125 192.78125 L 220.5 192.78125 L 220.625 192.660156 L 220.625 192.484375 L 220.5 192.363281 L 220.328125 192.363281 " fill-opacity="1" fill-rule="nonzero"/><g clip-path="url(#44ec021e8d)"><path fill="#c9a64c" d="M 221.539062 192.472656 L 221.417969 192.351562 L 221.242188 192.351562 L 221.117188 192.472656 L 221.117188 192.648438 L 221.242188 192.769531 L 221.417969 192.769531 L 221.539062 192.648438 L 221.539062 192.472656 " fill-opacity="1" fill-rule="nonzero"/></g><path fill="#c9a64c" d="M 181.726562 187.734375 L 181.550781 187.734375 L 181.429688 187.855469 L 181.429688 188.03125 L 181.550781 188.152344 L 181.726562 188.152344 L 181.851562 188.03125 L 181.851562 187.855469 L 181.726562 187.734375 " fill-opacity="1" fill-rule="nonzero"/><path fill="#c9a64c" d="M 180.691406 187.425781 L 180.566406 187.546875 L 180.566406 187.722656 L 180.691406 187.84375 L 180.867188 187.84375 L 180.992188 187.722656 L 180.992188 187.546875 L 180.867188 187.425781 L 180.691406 187.425781 " fill-opacity="1" fill-rule="nonzero"/><path fill="#c9a64c" d="M 179.820312 187.15625 L 179.695312 187.28125 L 179.695312 187.453125 L 179.820312 187.578125 L 179.996094 187.578125 L 180.121094 187.453125 L 180.121094 187.28125 L 179.996094 187.15625 L 179.820312 187.15625 " fill-opacity="1" fill-rule="nonzero"/><path fill="#c9a64c" d="M 179.097656 186.988281 L 178.921875 186.988281 L 178.796875 187.113281 L 178.796875 187.285156 L 178.921875 187.410156 L 179.097656 187.410156 L 179.21875 187.285156 L 179.21875 187.113281 L 179.097656 186.988281 " fill-opacity="1" fill-rule="nonzero"/><path fill="#c9a64c" d="M 178.023438 186.832031 L 177.898438 186.957031 L 177.898438 187.128906 L 178.023438 187.253906 L 178.195312 187.253906 L 178.320312 187.128906 L 178.320312 186.957031 L 178.195312 186.832031 L 178.023438 186.832031 " fill-opacity="1" fill-rule="nonzero"/><path fill="#c9a64c" d="M 177.109375 186.769531 L 176.984375 186.890625 L 176.984375 187.066406 L 177.109375 187.1875 L 177.285156 187.1875 L 177.40625 187.066406 L 177.40625 186.890625 L 177.285156 186.769531 L 177.109375 186.769531 " fill-opacity="1" fill-rule="nonzero"/><path fill="#c9a64c" d="M 176.195312 186.742188 L 176.070312 186.867188 L 176.070312 187.039062 L 176.195312 187.164062 L 176.371094 187.164062 L 176.492188 187.039062 L 176.492188 186.867188 L 176.371094 186.742188 L 176.195312 186.742188 " fill-opacity="1" fill-rule="nonzero"/><path fill="#c9a64c" d="M 194.316406 187.917969 L 194.191406 188.042969 L 194.191406 188.214844 L 194.316406 188.339844 L 194.492188 188.339844 L 194.617188 188.214844 L 194.617188 188.042969 L 194.492188 187.917969 L 194.316406 187.917969 " fill-opacity="1" fill-rule="nonzero"/><path fill="#c9a64c" d="M 195.175781 187.609375 L 195.050781 187.734375 L 195.050781 187.90625 L 195.175781 188.03125 L 195.351562 188.03125 L 195.476562 187.90625 L 195.476562 187.734375 L 195.351562 187.609375 L 195.175781 187.609375 " fill-opacity="1" fill-rule="nonzero"/><path fill="#c9a64c" d="M 196.222656 187.34375 L 196.046875 187.34375 L 195.925781 187.464844 L 195.925781 187.640625 L 196.046875 187.761719 L 196.222656 187.761719 L 196.347656 187.640625 L 196.347656 187.464844 L 196.222656 187.34375 " fill-opacity="1" fill-rule="nonzero"/><path fill="#c9a64c" d="M 196.945312 187.175781 L 196.824219 187.296875 L 196.824219 187.472656 L 196.945312 187.59375 L 197.121094 187.59375 L 197.246094 187.472656 L 197.246094 187.296875 L 197.121094 187.175781 L 196.945312 187.175781 " fill-opacity="1" fill-rule="nonzero"/><path fill="#c9a64c" d="M 197.847656 187.019531 L 197.722656 187.140625 L 197.722656 187.316406 L 197.847656 187.4375 L 198.023438 187.4375 L 198.144531 187.316406 L 198.144531 187.140625 L 198.023438 187.019531 L 197.847656 187.019531 " fill-opacity="1" fill-rule="nonzero"/><path fill="#c9a64c" d="M 198.757812 186.953125 L 198.636719 187.078125 L 198.636719 187.25 L 198.757812 187.375 L 198.933594 187.375 L 199.058594 187.25 L 199.058594 187.078125 L 198.933594 186.953125 L 198.757812 186.953125 " fill-opacity="1" fill-rule="nonzero"/><path fill="#c9a64c" d="M 199.847656 187.347656 L 199.972656 187.226562 L 199.972656 187.054688 L 199.847656 186.929688 L 199.671875 186.929688 L 199.550781 187.054688 L 199.550781 187.226562 L 199.671875 187.347656 L 199.847656 187.347656 " fill-opacity="1" fill-rule="nonzero"/><path fill="#c9a64c" d="M 188.382812 196.210938 C 188.335938 196.191406 187.886719 196.199219 187.835938 196.210938 C 187.785156 196.226562 187.46875 196.542969 187.449219 196.59375 C 187.429688 196.648438 187.429688 197.074219 187.449219 197.136719 C 187.46875 197.199219 187.804688 197.492188 187.835938 197.519531 C 187.867188 197.550781 188.324219 197.539062 188.382812 197.519531 C 188.4375 197.5 188.75 197.183594 188.765625 197.136719 C 188.78125 197.09375 188.78125 196.644531 188.765625 196.59375 C 188.753906 196.546875 188.425781 196.234375 188.382812 196.210938 " fill-opacity="1" fill-rule="nonzero"/><path fill="#c9a64c" d="M 188.382812 193.90625 C 188.335938 193.882812 187.886719 193.890625 187.835938 193.90625 C 187.785156 193.921875 187.46875 194.238281 187.449219 194.289062 C 187.429688 194.339844 187.429688 194.765625 187.449219 194.832031 C 187.46875 194.894531 187.804688 195.183594 187.835938 195.214844 C 187.867188 195.242188 188.324219 195.234375 188.382812 195.214844 C 188.4375 195.195312 188.75 194.875 188.765625 194.832031 C 188.78125 194.785156 188.78125 194.339844 188.765625 194.289062 C 188.753906 194.242188 188.425781 193.925781 188.382812 193.90625 " fill-opacity="1" fill-rule="nonzero"/><path fill="#c9a64c" d="M 188.382812 191.601562 C 188.335938 191.578125 187.886719 191.585938 187.835938 191.601562 C 187.785156 191.617188 187.46875 191.933594 187.449219 191.984375 C 187.429688 192.035156 187.429688 192.460938 187.449219 192.527344 C 187.46875 192.589844 187.804688 192.878906 187.835938 192.910156 C 187.867188 192.9375 188.324219 192.929688 188.382812 192.910156 C 188.4375 192.886719 188.753906 192.570312 188.769531 192.527344 C 188.785156 192.480469 188.78125 192.03125 188.769531 191.984375 C 188.753906 191.933594 188.425781 191.621094 188.382812 191.601562 " fill-opacity="1" fill-rule="nonzero"/></svg>